<?xml version="1.0" encoding="UTF-8"?>
<svg version="1.1" viewBox="0 0 1600 1328" width="1280" height="1280" xmlns="http://www.w3.org/2000/svg">
<path transform="translate(776 55.7)" d="m0 0c1.87-0.00946 1.87-0.00946 3.77-0.0191 1.35 0.00358 2.7 0.00768 4.05 0.0123 1.39-0.00135 2.79-0.00329 4.18-0.0058 2.92-0.00294 5.83 0.00132 8.75 0.0107 3.73 0.0114 7.46 0.00483 11.2-0.00714 2.88-0.00724 5.75-0.00492 8.63 2.56e-4 1.37 0.00133 2.75-2.9e-4 4.12-0.00496 1.92-0.0051 3.85 0.00406 5.77 0.0138 1.64 0.00239 1.64 0.00239 3.31 0.00482 3.05 0.261 5.17 1.05 7.96 2.25 2.61 0.264 5.14 0.459 7.75 0.562 7.13 0.315 7.13 0.315 8.25 1.44 1.81 0.0963 3.61 0.185 5.42 0.24 8.09 0.252 15.9 1.16 23.8 2.7 0.88 0.17 1.76 0.34 2.67 0.515 3.51 0.71 6.86 1.47 10.3 2.62 3.27 1.07 6.34 1.44 9.76 1.8 8.69 1.08 17.4 2.8 25.6 6.16 3.08 1.19 6.14 1.82 9.38 2.47 4.78 0.99 9.46 2.06 14.1 3.5v2c1.18-0.0619 2.35-0.124 3.56-0.188 4.5-0.00802 7.47 1.08 11.4 3.19 0.33 0.66 0.66 1.32 1 2 2.32 0.407 4.66 0.744 7 1v2c0.804-0.0825 1.61-0.165 2.44-0.25 4.03 0.283 6.64 1.44 10.2 3.16 3.37 1.58 6.83 2.82 10.3 4.09v2c0.784-0.0412 1.57-0.0825 2.38-0.125 2.62 0.125 2.62 0.125 4.62 2.12 1.66 0.686 3.33 1.35 5 2 2.93 1.45 5.84 2.93 8.74 4.43 2.83 1.44 5.56 2.67 8.58 3.66 2.68 0.906 2.68 0.906 4.68 2.91 0.99 0.33 1.98 0.66 3 1 0.66 0.66 1.32 1.32 2 2 1.17 0.693 2.36 1.36 3.56 2 3.44 2 3.44 2 4.44 4 1.66 0.359 3.33 0.689 5 1 2.31 1.06 2.31 1.06 4 2v2c0.722 0.268 1.44 0.536 2.19 0.812 2.8 1.18 5.23 2.6 7.81 4.19 0.722 0.351 1.44 0.701 2.19 1.06 1.81 0.938 1.81 0.938 3.81 2.94 0.763 0.268 1.53 0.536 2.31 0.812 2.69 1.19 2.69 1.19 4.94 3.56 3.09 2.95 5.8 4.09 9.76 5.54 2.45 1.34 2.82 2.62 3.99 5.09 0.99 0.33 1.98 0.66 3 1 1.33 1.33 2.67 2.67 4 4h2v3c0.587 0.267 1.17 0.534 1.78 0.809 2.92 1.56 5.11 3.63 7.54 5.85 1.76 1.55 1.76 1.55 4.68 2.34 0.681 0.928 0.681 0.928 1.38 1.88 1.5 2.25 1.5 2.25 3.88 3.38 3.23 2.06 5.22 4.46 7.61 7.42 1.81 1.97 3.6 3.63 5.62 5.36 5.19 4.48 10 9.3 14.9 14.1 1.56 1.56 3.13 3.11 4.71 4.67 5.68 5.65 11 11.4 15.9 17.7 2.07 2.58 4.25 5.02 6.48 7.46 8.14 8.97 15.4 18.5 22.3 28.3 1.69 2.39 3.43 4.74 5.17 7.09 7.1 9.76 13.7 19.8 19.8 30.2 2.21 3.74 4.5 7.4 6.88 11 3.57 5.56 6.43 11.4 9.31 17.3 0.949 1.9 1.91 3.79 2.86 5.68 6.17 12.2 12.2 24.5 17.1 37.3 0.645 1.58 1.29 3.17 1.94 4.75 3.86 9.66 7.17 19.5 10.2 29.4 0.902 2.99 0.902 2.99 2.46 6.38 1.67 3.99 2.63 7.97 3.59 12.2 0.655 2.53 1.41 4.88 2.28 7.34 1.97 5.79 3.01 11.7 4.13 17.7 0.413 2.22 0.83 4.43 1.25 6.64 0.18 0.969 0.36 1.94 0.545 2.94 0.607 2.48 1.49 4.35 2.64 6.61 0.487 2.01 0.487 2.01 0.816 4.12 0.186 1.18 0.186 1.18 0.375 2.37 0.122 0.825 0.245 1.65 0.371 2.5 0.131 0.849 0.262 1.7 0.396 2.57 0.837 5.59 1.45 11.1 1.73 16.8 0.238 2.75 0.238 2.75 1.27 5.71 1.58 5.22 1.72 10.6 2.1 16.1 0.155 2.13 0.312 4.26 0.473 6.38 0.0658 0.935 0.132 1.87 0.199 2.83 0.205 2.61 0.205 2.61 0.773 4.89 0.583 3.27 0.627 6.36 0.638 9.69 0.00504 1.02 0.00504 1.02 0.0102 2.05 0.00947 2.23 0.0115 4.47 0.0125 6.7 0.00322 1.57 0.00658 3.14 0.0101 4.71 0.00599 3.29 0.00784 6.59 0.00725 9.88-1.01e-4 4.17 0.0135 8.35 0.0308 12.5 0.0113 3.25 0.0131 6.49 0.0126 9.74 0.00116 1.54 0.00549 3.07 0.0133 4.61 0.0597 12.9-0.899 25.4-3.8 38-1.06 4.63-1.65 9-1.88 13.8-0.365 6.56-1.76 12.6-3.46 18.9-1.19 4.41-2.15 8.87-3.11 13.3-1.69 7.73-3.72 15.3-6 22.9-0.529 1.77-1.06 3.54-1.59 5.31-1.46 4.9-2.94 9.79-4.41 14.7h-2c-0.0864 0.571-0.173 1.14-0.262 1.73-1.09 6.27-3 11.9-5.36 17.8-1.48 3.74-2.85 7.5-4.19 11.3l-1.27 3.58c-0.303 0.86-0.606 1.72-0.918 2.61h-2c-0.206 1.26-0.412 2.52-0.625 3.81-1.11 5.12-3.39 9.22-6.04 13.7-1.2 2.21-1.88 4.03-2.34 6.48h-2c-0.116 0.722-0.232 1.44-0.352 2.19-1.43 6.19-5.02 12.6-8.65 17.8h-2c-0.66 2.64-1.32 5.28-2 8h-2c-0.227 0.639-0.454 1.28-0.688 1.94-2.27 5.29-5.12 10.3-8.31 15.1h-2c-0.377 1.3-0.377 1.3-0.762 2.62-2.5 6.82-7.14 13.1-11.9 18.6-2.6 3.07-4.76 6.29-6.95 9.66-1.41 2.12-2.79 4.19-4.43 6.15h-2c-0.0825 0.557-0.165 1.11-0.25 1.69-1 3.1-2.61 4.84-4.75 7.31-0.566 0.681-1.13 1.36-1.71 2.06-0.61 0.722-1.22 1.44-1.85 2.19-0.579 0.686-1.16 1.37-1.75 2.08-1.68 1.67-1.68 1.67-4.68 2.67-0.247 0.701-0.495 1.4-0.75 2.12-1.51 3.48-3.52 5.26-6.25 7.83-3.03 3.08-5.54 6.54-8.11 10-2.1 2.26-3.02 2.34-5.89 3.04-1.08 1.86-1.08 1.86-2 4-1.14 1.23-2.33 2.42-3.56 3.56-2.43 2.27-3.36 3.21-4.44 6.44-1.65 0.33-3.3 0.66-5 1-0.0864 0.61-0.173 1.22-0.262 1.85-0.954 2.78-2 3.22-4.55 4.59-3.6 2.08-5.67 4.23-8.19 7.56-2.06 1.12-2.06 1.12-4 2-0.743 0.773-0.743 0.773-1.5 1.56-1.77 1.7-3.11 2.03-5.5 2.44-0.0619 0.598-0.124 1.2-0.188 1.81-1.15 3.09-2.92 3.78-5.81 5.19h-2c-0.33 0.99-0.66 1.98-1 3h-2v2c-1.98 0.66-3.96 1.32-6 2v2c-5.36 5-5.36 5-9 5-0.33 0.99-0.66 1.98-1 3-4.33 3-4.33 3-7 3v2c-0.804 0.289-1.61 0.578-2.44 0.875-2.7 0.858-2.7 0.858-3.56 3.12h-2v2c-2.31 0.33-4.62 0.66-7 1v2c-1.79 1.47-1.79 1.47-4.19 3.06-0.777 0.527-1.55 1.05-2.36 1.6-2.53 1.38-4.62 1.93-7.46 2.34v2c-3.37 2.43-4.73 3-9 3v2c-2.05 1.51-2.05 1.51-4.75 3.12-0.882 0.539-1.76 1.08-2.67 1.63-2.58 1.24-2.58 1.24-6.58 1.24v2c-3.03 1.55-6.04 3.02-9.19 4.31-4.23 1.77-8.17 4.04-12.2 6.29-2.51 1.33-5 2.38-7.65 3.4-1.27 0.578-2.54 1.16-3.81 1.75-6.28 2.81-12.7 5.13-19.2 7.51-5.07 1.87-10.1 3.76-15.1 5.8-1.62 0.646-3.25 1.29-4.88 1.94l-3.12 1.25c-3.75 0.977-7.01 0.883-10.9 0.75v2c-8.99 3.34-17.4 5.63-27 6.54-3.21 0.261-3.21 0.261-6.05 2.46-2.67 0.762-5.3 1.44-8 2.06-0.758 0.177-1.52 0.354-2.3 0.536-5.22 1.18-10.3 1.94-15.7 2.23-2.08 0.0584-2.08 0.0584-4 1.18-2.3 0.309-4.6 0.509-6.91 0.719-2.15 0.173-2.15 0.173-4.09 1.28-9.33 2.09-18.8 2.37-28.3 2.66-0.966 0.0316-1.93 0.0632-2.93 0.0957-0.87 0.0239-1.74 0.0479-2.64 0.0725-2.18 0.0444-2.18 0.0444-4.13 1.17-2.23 0.0971-4.46 0.128-6.7 0.129-0.688 0.00175-1.38 0.0035-2.08 0.00531-2.28 0.00441-4.56 0.00148-6.84-0.00189-1.58 6.73e-4 -3.16 0.00164-4.75 0.0029-3.32 0.00148-6.64-6.74e-4 -9.95-0.00534-4.25-0.00569-8.51-0.00242-12.8 0.00357-3.27 0.00361-6.54 0.00246-9.8-1.28e-4 -1.57-6.68e-4 -3.14 1.53e-4 -4.71 0.00248-2.19 0.00254-4.39-0.00133-6.58-0.0069-1.25-7.96e-4 -2.5-0.00159-3.78-0.00241-3.04-0.127-3.04-0.127-6.04-1.13-1.44-0.113-2.88-0.178-4.32-0.211-0.856-0.0264-1.71-0.0529-2.59-0.0801-1.37-0.0416-1.37-0.0416-2.77-0.084-8.16-0.308-15.8-1.25-23.8-2.93-3.92-0.782-7.78-1.21-11.8-1.48-1.72-0.211-1.72-0.211-2.72-1.21-1.66-0.138-3.33-0.233-5-0.312-5.5-0.41-10.7-1.37-16.1-2.62-0.738-0.17-1.48-0.34-2.24-0.515-3.38-0.819-5.78-1.6-8.7-3.55-2.22-0.381-4.45-0.684-6.69-0.938-5.61-0.733-10.1-1.88-15.3-4.06-1.31-0.393-2.62-0.769-3.94-1.12-3.06-0.875-3.06-0.875-4.06-1.88-1.35-0.231-2.7-0.412-4.06-0.562-1.3-0.144-2.6-0.289-3.94-0.438v-2c-1.07 0.0619-1.07 0.0619-2.17 0.125-3.14-0.139-5.26-0.896-8.14-2.12-0.883-0.371-1.77-0.742-2.68-1.12-0.664-0.289-1.33-0.578-2.01-0.875v-2c-1.7 0.155-1.7 0.155-3.44 0.312-4.63 0.0245-7.44-1.69-11.3-4.07-3.32-1.84-6.55-2.5-10.3-3.25v-2c-0.804-0.0825-1.61-0.165-2.44-0.25-7.66-1.61-14.3-5.64-21.1-9.48-2.2-1.13-4.07-1.8-6.48-2.27v-2c-0.846-0.268-1.69-0.536-2.56-0.812-6.48-2.24-11.6-4.82-17.2-8.79-2.33-1.48-4.64-2.41-7.21-3.4-2.01-1.31-4.01-2.65-6-4-3.28-1.94-6.61-3.78-9.94-5.62-0.681-0.454-1.36-0.908-2.06-1.38v-2c-1.65-0.33-3.3-0.66-5-1v-2c-1.97-0.998-3.95-1.98-5.96-2.89-4.55-2.12-7.54-4.43-11-8.11-1.64-1.04-3.31-2.04-5-3-1.28-0.838-2.55-1.69-3.81-2.56l-1.83-1.25c-0.447-0.391-0.895-0.781-1.36-1.18v-2h-3c-1.69-1.37-1.69-1.37-3-3v-2l-2.75-0.688c-3.75-1.52-4.86-3.13-7.25-6.31-1.32-0.699-2.65-1.37-4-2-1.36-1.31-2.69-2.65-4-4l-2.75-2.12-2.25-1.88v-2h-2c-0.33-0.66-0.66-1.32-1-2l-2.19-1.31c-3.29-1.98-5.97-4.11-8.81-6.69v-2h-2c-1.55-1.61-1.55-1.61-3.31-3.75-1.95-2.37-3.76-4.31-6.18-6.21-2.58-2.09-4.38-4.21-6.39-6.85-2.96-3.79-6.03-7.21-9.48-10.5-2.17-2.16-4.14-4.46-6.1-6.82-1.12-1.32-2.27-2.6-3.45-3.87-0.633-0.687-1.27-1.37-1.92-2.08-0.584-0.621-1.17-1.24-1.77-1.88-1.65-2.32-2.04-4.19-2.42-6.99h-3c-4-5.26-4-5.26-4-8h-2c-1.51-1.9-1.51-1.9-3.12-4.38-0.808-1.22-0.808-1.22-1.63-2.46-1.24-2.16-1.24-2.16-1.24-4.16l-1.94-0.688c-2.06-1.31-2.06-1.31-2.81-3.94l-0.25-2.38c-0.99-0.33-1.98-0.66-3-1-1.25-1.86-1.25-1.86-2.44-4.19-2.39-4.52-4.97-8.77-8.12-12.8-2.14-2.98-4.44-6.25-4.44-10h-2l-0.918-1.94c-1.99-4.11-3.93-8.04-6.71-11.7-2.17-2.87-3.26-5.74-4.48-9.11-1.63-4.11-3.79-7.94-5.9-11.8-8.09-15-8.09-15-9-22.4h-2c-0.231-0.666-0.461-1.33-0.699-2.02-2.12-5.99-4.49-11.7-7.25-17.5-1.05-2.51-1.56-4.84-2.05-7.51-0.351-0.639-0.701-1.28-1.06-1.94-1.25-2.75-1.07-5.08-0.938-8.06h-2c-1.7-4.37-3.11-8.39-4-13-1.31-4.83-2.79-9.56-4.69-14.2-1.44-3.67-1.39-6.87-1.31-10.8l-2-3c-0.231-1.91-0.458-3.83-0.648-5.75-0.503-3.22-1.63-6.15-2.73-9.21-0.736-2.41-0.699-4.54-0.625-7.04l-2-3c-0.487-2.06-0.487-2.06-0.816-4.43-0.124-0.872-0.248-1.74-0.375-2.64-0.184-1.39-0.184-1.39-0.371-2.8-0.131-0.943-0.262-1.89-0.396-2.86-0.84-6.22-1.45-12.4-1.73-18.7-0.198-2.62-0.198-2.62-1.27-5-2.83-7.08-2.04-14.7-1.91-22.2 0.0989-8.38 0.0114-15.9-2.66-23.9-0.609-3.32 0.353-5.4 1.54-8.52 0.0408-2 0.0425-4 0-6 0.17-0.681 0.34-1.36 0.516-2.06 0.431-2.61 0.482-4.71 0.371-7.34-0.686-17.4 2.03-33.9 5-51 1.06-6.14 1.89-12.3 2.64-18.5 0.577-3.93 1.56-7.64 2.68-11.4 2.02-7.02 3.56-14.2 4.73-21.4 0.828-4.8 2.37-9.08 4.12-13.6 0.959-2.82 1.48-5.5 1.94-8.45 0.69-4.31 1.9-7.55 3.99-11.4 2.45-4.75 3.81-9.96 5.01-15.1 0.959-3.66 2.29-6.46 4-9.81 0.477-1.41 0.934-2.83 1.38-4.25 3.82-11.9 3.82-11.9 7.62-15.8 0.245-1.35 0.471-2.71 0.688-4.06 0.969-4.65 2.91-7.3 5.87-10.9 1.93-2.7 2.68-5.38 3.61-8.53 2.6-7.78 6.89-14.8 11.5-21.5 1.7-2.53 2.99-5.2 4.3-7.95 2.81-5.44 5.9-10.3 9.66-15.2 1.79-2.46 3.03-5.1 4.34-7.84 1.31-2.01 2.65-4.01 4-6 0.474-0.825 0.949-1.65 1.44-2.5 1.93-3.08 4.2-5.74 6.56-8.5 2.71-3.26 5.01-6.55 7.19-10.2 3.05-4.86 6.49-8.94 10.4-13.1 3.23-3.61 6.14-7.44 9.05-11.3 4.16-5.53 4.16-5.53 6.36-7.38h2c0.211-0.54 0.423-1.08 0.641-1.64 1.86-3.24 4.44-5.61 7.11-8.18 3.37-3.29 6.68-6.55 9.69-10.2 2.36-2.76 4.73-4.75 7.56-7 1.19-1.45 2.38-2.89 3.55-4.36 2.3-2.6 4.94-4.78 7.59-7.03 2.01-1.69 2.01-1.69 4.24-4.05 1.62-1.56 1.62-1.56 3.62-1.56v-2h2c0.33-0.99 0.66-1.98 1-3 0.99-0.33 1.98-0.66 3-1 0.99-1.49 0.99-1.49 2-3h3c0.206-0.557 0.412-1.11 0.625-1.69 1.51-2.54 3.29-4.07 5.59-5.88 2.75-2.22 5.28-4.66 7.85-7.08 1.93-1.36 1.93-1.36 5.93-1.36 0.248-0.619 0.495-1.24 0.75-1.88 1.46-2.48 2.63-3.08 5.25-4.12v-2l5-1c0.33-0.99 0.66-1.98 1-3 3.21-1.89 5.25-3 9-3v-2c0.534-0.28 1.07-0.559 1.62-0.848 4.32-2.32 8.39-4.79 12.4-7.65 4.5-3.21 9.12-5.91 14-8.5 1.92-1.04 3.83-2.08 5.75-3.12 1.32-0.715 1.32-0.715 2.67-1.45 1.77-0.982 3.52-2 5.25-3.05 2.39-1.42 4.74-2.37 7.32-3.38 0.969-0.495 1.94-0.99 2.94-1.5 3.06-1.5 3.06-1.5 6.38-2.56 2.83-0.636 2.83-0.636 3.69-2.94 1.83-0.895 1.83-0.895 4.25-1.81 0.897-0.345 1.79-0.691 2.72-1.05 1.5-0.565 1.5-0.565 3.03-1.14 2.25-0.852 4.5-1.71 6.75-2.56 1.05-0.393 2.09-0.786 3.17-1.19 3.14-1.22 3.14-1.22 6.26-2.89 3.18-1.53 5.33-1.61 8.82-1.36v-2c14.2-5.77 14.2-5.77 19.5-6.44 3.49-0.37 3.49-0.37 6.24-2 4.22-2.02 8.37-2.69 13-3.47 3.38-0.609 5.4-1.16 8.3-3.1 4.45-1.74 8.96-2.65 13.6-3.54 2.31-0.416 2.31-0.416 4.3-1.03 3.69-0.773 7.45-0.335 11.2-0.176 2.89 0.00406 2.89 0.00406 4.72-1.7 2.56-1.85 4.41-2.2 7.52-2.69 1.04-0.166 2.09-0.332 3.17-0.503 1.65-0.242 1.65-0.242 3.34-0.49 1.68-0.259 1.68-0.259 3.4-0.523 7.15-1.07 14.2-1.87 21.4-2.18 2.25 0.0758 2.25 0.0758 3.28-1.18 3.52-0.238 7.04-0.396 10.6-0.518 0.746-0.0342 1.49-0.0683 2.26-0.104 0.68-0.0251 1.36-0.0501 2.06-0.0759 2.19-0.216 2.19-0.216 4.35-1.31 3.18-1.15 5.66-1.25 9.03-1.26z" fill="#009DEC"/>
<path transform="translate(776 55.7)" d="m0 0c1.87-0.00946 1.87-0.00946 3.77-0.0191 1.35 0.00358 2.7 0.00768 4.05 0.0123 1.39-0.00135 2.79-0.00329 4.18-0.0058 2.92-0.00294 5.83 0.00132 8.75 0.0107 3.73 0.0114 7.46 0.00483 11.2-0.00714 2.88-0.00724 5.75-0.00492 8.63 2.56e-4 1.37 0.00133 2.75-2.9e-4 4.12-0.00496 1.92-0.0051 3.85 0.00406 5.77 0.0138 1.64 0.00239 1.64 0.00239 3.31 0.00482 3.05 0.261 5.17 1.05 7.96 2.25 2.61 0.264 5.14 0.459 7.75 0.562 7.13 0.315 7.13 0.315 8.25 1.44 1.81 0.0963 3.61 0.185 5.42 0.24 8.09 0.252 15.9 1.16 23.8 2.7 0.88 0.17 1.76 0.34 2.67 0.515 3.51 0.71 6.86 1.47 10.3 2.62 3.27 1.07 6.34 1.44 9.76 1.8 8.69 1.08 17.4 2.8 25.6 6.16 3.08 1.19 6.14 1.82 9.38 2.47 4.78 0.99 9.46 2.06 14.1 3.5v2c1.18-0.0619 2.35-0.124 3.56-0.188 4.5-0.00802 7.47 1.08 11.4 3.19 0.33 0.66 0.66 1.32 1 2 2.32 0.407 4.66 0.744 7 1v2c0.804-0.0825 1.61-0.165 2.44-0.25 4.03 0.283 6.64 1.44 10.2 3.16 3.37 1.58 6.83 2.82 10.3 4.09v2c0.784-0.0412 1.57-0.0825 2.38-0.125 2.62 0.125 2.62 0.125 4.62 2.12 1.66 0.686 3.33 1.35 5 2 2.93 1.45 5.84 2.93 8.74 4.43 2.83 1.44 5.56 2.67 8.58 3.66 2.68 0.906 2.68 0.906 4.68 2.91 0.99 0.33 1.98 0.66 3 1 0.66 0.66 1.32 1.32 2 2 1.17 0.693 2.36 1.36 3.56 2 3.44 2 3.44 2 4.44 4 1.66 0.359 3.33 0.689 5 1 2.31 1.06 2.31 1.06 4 2v2c0.722 0.268 1.44 0.536 2.19 0.812 2.8 1.18 5.23 2.6 7.81 4.19 0.722 0.351 1.44 0.701 2.19 1.06 1.81 0.938 1.81 0.938 3.81 2.94 0.763 0.268 1.53 0.536 2.31 0.812 2.69 1.19 2.69 1.19 4.94 3.56 3.09 2.95 5.8 4.09 9.76 5.54 2.45 1.34 2.82 2.62 3.99 5.09 0.99 0.33 1.98 0.66 3 1 1.33 1.33 2.67 2.67 4 4h2v3c0.587 0.267 1.17 0.534 1.78 0.809 2.92 1.56 5.11 3.63 7.54 5.85 1.76 1.55 1.76 1.55 4.68 2.34 0.681 0.928 0.681 0.928 1.38 1.88 1.5 2.25 1.5 2.25 3.88 3.38 3.23 2.06 5.22 4.46 7.61 7.42 1.81 1.97 3.6 3.63 5.62 5.36 5.19 4.48 10 9.3 14.9 14.1 1.56 1.56 3.13 3.11 4.71 4.67 5.68 5.65 11 11.4 15.9 17.7 2.07 2.58 4.25 5.02 6.48 7.46 8.14 8.97 15.4 18.5 22.3 28.3 1.69 2.39 3.43 4.74 5.17 7.09 7.1 9.76 13.7 19.8 19.8 30.2 2.21 3.74 4.5 7.4 6.88 11 3.57 5.56 6.43 11.4 9.31 17.3 0.949 1.9 1.91 3.79 2.86 5.68 6.17 12.2 12.2 24.5 17.1 37.3 0.645 1.58 1.29 3.17 1.94 4.75 3.86 9.66 7.17 19.5 10.2 29.4 0.902 2.99 0.902 2.99 2.46 6.38 1.67 3.99 2.63 7.97 3.59 12.2 0.655 2.53 1.41 4.88 2.28 7.34 1.97 5.79 3.01 11.7 4.13 17.7 0.413 2.22 0.83 4.43 1.25 6.64 0.18 0.969 0.36 1.94 0.545 2.94 0.607 2.48 1.49 4.35 2.64 6.61 0.487 2.01 0.487 2.01 0.816 4.12 0.186 1.18 0.186 1.18 0.375 2.37 0.122 0.825 0.245 1.65 0.371 2.5 0.131 0.849 0.262 1.7 0.396 2.57 0.837 5.59 1.45 11.1 1.73 16.8 0.238 2.75 0.238 2.75 1.27 5.71 1.58 5.22 1.72 10.6 2.1 16.1 0.155 2.13 0.312 4.26 0.473 6.38 0.0658 0.935 0.132 1.87 0.199 2.83 0.205 2.61 0.205 2.61 0.773 4.89 0.583 3.27 0.627 6.36 0.638 9.69 0.00504 1.02 0.00504 1.02 0.0102 2.05 0.00947 2.23 0.0115 4.47 0.0125 6.7 0.00322 1.57 0.00658 3.14 0.0101 4.71 0.00599 3.29 0.00784 6.59 0.00725 9.88-1.01e-4 4.17 0.0135 8.35 0.0308 12.5 0.0113 3.25 0.0131 6.49 0.0126 9.74 0.00116 1.54 0.00549 3.07 0.0133 4.61 0.0597 12.9-0.899 25.4-3.8 38-1.06 4.63-1.65 9-1.88 13.8-0.365 6.56-1.76 12.6-3.46 18.9-1.19 4.41-2.15 8.87-3.11 13.3-1.69 7.73-3.72 15.3-6 22.9-0.529 1.77-1.06 3.54-1.59 5.31-1.46 4.9-2.94 9.79-4.41 14.7h-2c-0.0864 0.571-0.173 1.14-0.262 1.73-1.09 6.27-3 11.9-5.36 17.8-1.48 3.74-2.85 7.5-4.19 11.3l-1.27 3.58c-0.303 0.86-0.606 1.72-0.918 2.61h-2c-0.206 1.26-0.412 2.52-0.625 3.81-1.11 5.12-3.39 9.22-6.04 13.7-1.2 2.21-1.88 4.03-2.34 6.48h-2c-0.116 0.722-0.232 1.44-0.352 2.19-1.43 6.19-5.02 12.6-8.65 17.8h-2c-0.66 2.64-1.32 5.28-2 8h-2c-0.227 0.639-0.454 1.28-0.688 1.94-2.27 5.29-5.12 10.3-8.31 15.1h-2c-0.377 1.3-0.377 1.3-0.762 2.62-2.5 6.82-7.14 13.1-11.9 18.6-2.6 3.07-4.76 6.29-6.95 9.66-1.41 2.12-2.79 4.19-4.43 6.15h-2c-0.0825 0.557-0.165 1.11-0.25 1.69-1 3.1-2.61 4.84-4.75 7.31-0.566 0.681-1.13 1.36-1.71 2.06-0.61 0.722-1.22 1.44-1.85 2.19-0.579 0.686-1.16 1.37-1.75 2.08-1.68 1.67-1.68 1.67-4.68 2.67-0.247 0.701-0.495 1.4-0.75 2.12-1.51 3.48-3.52 5.26-6.25 7.83-3.03 3.08-5.54 6.54-8.11 10-2.1 2.26-3.02 2.34-5.89 3.04-1.08 1.86-1.08 1.86-2 4-1.14 1.23-2.33 2.42-3.56 3.56-2.43 2.27-3.36 3.21-4.44 6.44-1.65 0.33-3.3 0.66-5 1-0.0864 0.61-0.173 1.22-0.262 1.85-0.954 2.78-2 3.22-4.55 4.59-3.6 2.08-5.67 4.23-8.19 7.56-2.06 1.12-2.06 1.12-4 2-0.743 0.773-0.743 0.773-1.5 1.56-1.77 1.7-3.11 2.03-5.5 2.44-0.0619 0.598-0.124 1.2-0.188 1.81-1.15 3.09-2.92 3.78-5.81 5.19h-2c-0.33 0.99-0.66 1.98-1 3h-2v2c-1.98 0.66-3.96 1.32-6 2v2c-5.36 5-5.36 5-9 5-0.33 0.99-0.66 1.98-1 3-4.33 3-4.33 3-7 3v2c-0.804 0.289-1.61 0.578-2.44 0.875-2.7 0.858-2.7 0.858-3.56 3.12h-2v2c-2.31 0.33-4.62 0.66-7 1v2c-1.79 1.47-1.79 1.47-4.19 3.06-0.777 0.527-1.55 1.05-2.36 1.6-2.53 1.38-4.62 1.93-7.46 2.34v2c-3.37 2.43-4.73 3-9 3v2c-2.05 1.51-2.05 1.51-4.75 3.12-0.882 0.539-1.76 1.08-2.67 1.63-2.58 1.24-2.58 1.24-6.58 1.24v2c-3.03 1.55-6.04 3.02-9.19 4.31-4.23 1.77-8.17 4.04-12.2 6.29-2.51 1.33-5 2.38-7.65 3.4-1.27 0.578-2.54 1.16-3.81 1.75-6.28 2.81-12.7 5.13-19.2 7.51-5.07 1.87-10.1 3.76-15.1 5.8-1.62 0.646-3.25 1.29-4.88 1.94l-3.12 1.25c-3.75 0.977-7.01 0.883-10.9 0.75v2c-8.99 3.34-17.4 5.63-27 6.54-3.21 0.261-3.21 0.261-6.05 2.46-2.67 0.762-5.3 1.44-8 2.06-0.758 0.177-1.52 0.354-2.3 0.536-5.22 1.18-10.3 1.94-15.7 2.23-2.08 0.0584-2.08 0.0584-4 1.18-2.3 0.309-4.6 0.509-6.91 0.719-2.15 0.173-2.15 0.173-4.09 1.28-9.33 2.09-18.8 2.37-28.3 2.66-0.966 0.0316-1.93 0.0632-2.93 0.0957-0.87 0.0239-1.74 0.0479-2.64 0.0725-2.18 0.0444-2.18 0.0444-4.13 1.17-2.23 0.0971-4.46 0.128-6.7 0.129-0.688 0.00175-1.38 0.0035-2.08 0.00531-2.28 0.00441-4.56 0.00148-6.84-0.00189-1.58 6.73e-4 -3.16 0.00164-4.75 0.0029-3.32 0.00148-6.64-6.74e-4 -9.95-0.00534-4.25-0.00569-8.51-0.00242-12.8 0.00357-3.27 0.00361-6.54 0.00246-9.8-1.28e-4 -1.57-6.68e-4 -3.14 1.53e-4 -4.71 0.00248-2.19 0.00254-4.39-0.00133-6.58-0.0069-1.25-7.96e-4 -2.5-0.00159-3.78-0.00241-3.04-0.127-3.04-0.127-6.04-1.13-1.44-0.113-2.88-0.178-4.32-0.211-0.856-0.0264-1.71-0.0529-2.59-0.0801-1.37-0.0416-1.37-0.0416-2.77-0.084-8.16-0.308-15.8-1.25-23.8-2.93-3.92-0.782-7.78-1.21-11.8-1.48-1.72-0.211-1.72-0.211-2.72-1.21-1.66-0.138-3.33-0.233-5-0.312-5.5-0.41-10.7-1.37-16.1-2.62-0.738-0.17-1.48-0.34-2.24-0.515-3.38-0.819-5.78-1.6-8.7-3.55-2.22-0.381-4.45-0.684-6.69-0.938-5.61-0.733-10.1-1.88-15.3-4.06-1.31-0.393-2.62-0.769-3.94-1.12-3.06-0.875-3.06-0.875-4.06-1.88-1.35-0.231-2.7-0.412-4.06-0.562-1.3-0.144-2.6-0.289-3.94-0.438v-2c-1.07 0.0619-1.07 0.0619-2.17 0.125-3.14-0.139-5.26-0.896-8.14-2.12-0.883-0.371-1.77-0.742-2.68-1.12-0.664-0.289-1.33-0.578-2.01-0.875v-2c-1.7 0.155-1.7 0.155-3.44 0.312-4.63 0.0245-7.44-1.69-11.3-4.07-3.32-1.84-6.55-2.5-10.3-3.25v-2c-0.804-0.0825-1.61-0.165-2.44-0.25-7.66-1.61-14.3-5.64-21.1-9.48-2.2-1.13-4.07-1.8-6.48-2.27v-2c-0.846-0.268-1.69-0.536-2.56-0.812-6.48-2.24-11.6-4.82-17.2-8.79-2.33-1.48-4.64-2.41-7.21-3.4-2.01-1.31-4.01-2.65-6-4-3.28-1.94-6.61-3.78-9.94-5.62-0.681-0.454-1.36-0.908-2.06-1.38v-2c-1.65-0.33-3.3-0.66-5-1v-2c-1.97-0.998-3.95-1.98-5.96-2.89-4.55-2.12-7.54-4.43-11-8.11-1.64-1.04-3.31-2.04-5-3-1.28-0.838-2.55-1.69-3.81-2.56l-1.83-1.25c-0.447-0.391-0.895-0.781-1.36-1.18v-2h-3c-1.69-1.37-1.69-1.37-3-3v-2l-2.75-0.688c-3.75-1.52-4.86-3.13-7.25-6.31-1.32-0.699-2.65-1.37-4-2-1.36-1.31-2.69-2.65-4-4l-2.75-2.12-2.25-1.88v-2h-2c-0.33-0.66-0.66-1.32-1-2l-2.19-1.31c-3.29-1.98-5.97-4.11-8.81-6.69v-2h-2c-1.55-1.61-1.55-1.61-3.31-3.75-1.95-2.37-3.76-4.31-6.18-6.21-2.58-2.09-4.38-4.21-6.39-6.85-2.96-3.79-6.03-7.21-9.48-10.5-2.17-2.16-4.14-4.46-6.1-6.82-1.12-1.32-2.27-2.6-3.45-3.87-0.633-0.687-1.27-1.37-1.92-2.08-0.584-0.621-1.17-1.24-1.77-1.88-1.65-2.32-2.04-4.19-2.42-6.99h-3c-4-5.26-4-5.26-4-8h-2c-1.51-1.9-1.51-1.9-3.12-4.38-0.808-1.22-0.808-1.22-1.63-2.46-1.24-2.16-1.24-2.16-1.24-4.16l-1.94-0.688c-2.06-1.31-2.06-1.31-2.81-3.94l-0.25-2.38c-0.99-0.33-1.98-0.66-3-1-1.25-1.86-1.25-1.86-2.44-4.19-2.39-4.52-4.97-8.77-8.12-12.8-2.14-2.98-4.44-6.25-4.44-10h-2l-0.918-1.94c-1.99-4.11-3.93-8.04-6.71-11.7-2.17-2.87-3.26-5.74-4.48-9.11-1.63-4.11-3.79-7.94-5.9-11.8-8.09-15-8.09-15-9-22.4h-2c-0.231-0.666-0.461-1.33-0.699-2.02-2.12-5.99-4.49-11.7-7.25-17.5-1.05-2.51-1.56-4.84-2.05-7.51-0.351-0.639-0.701-1.28-1.06-1.94-1.25-2.75-1.07-5.08-0.938-8.06h-2c-1.7-4.37-3.11-8.39-4-13-1.31-4.83-2.79-9.56-4.69-14.2-1.44-3.67-1.39-6.87-1.31-10.8l-2-3c-0.231-1.91-0.458-3.83-0.648-5.75-0.503-3.22-1.63-6.15-2.73-9.21-0.736-2.41-0.699-4.54-0.625-7.04l-2-3c-0.487-2.06-0.487-2.06-0.816-4.43-0.124-0.872-0.248-1.74-0.375-2.64-0.184-1.39-0.184-1.39-0.371-2.8-0.131-0.943-0.262-1.89-0.396-2.86-0.84-6.22-1.45-12.4-1.73-18.7-0.198-2.62-0.198-2.62-1.27-5-2.83-7.08-2.04-14.7-1.91-22.2 0.0989-8.38 0.0114-15.9-2.66-23.9-0.609-3.32 0.353-5.4 1.54-8.52 0.0408-2 0.0425-4 0-6 0.17-0.681 0.34-1.36 0.516-2.06 0.431-2.61 0.482-4.71 0.371-7.34-0.686-17.4 2.03-33.9 5-51 1.06-6.14 1.89-12.3 2.64-18.5 0.577-3.93 1.56-7.64 2.68-11.4 2.02-7.02 3.56-14.2 4.73-21.4 0.828-4.8 2.37-9.08 4.12-13.6 0.959-2.82 1.48-5.5 1.94-8.45 0.69-4.31 1.9-7.55 3.99-11.4 2.45-4.75 3.81-9.96 5.01-15.1 0.959-3.66 2.29-6.46 4-9.81 0.477-1.41 0.934-2.83 1.38-4.25 3.82-11.9 3.82-11.9 7.62-15.8 0.245-1.35 0.471-2.71 0.688-4.06 0.969-4.65 2.91-7.3 5.87-10.9 1.93-2.7 2.68-5.38 3.61-8.53 2.6-7.78 6.89-14.8 11.5-21.5 1.7-2.53 2.99-5.2 4.3-7.95 2.81-5.44 5.9-10.3 9.66-15.2 1.79-2.46 3.03-5.1 4.34-7.84 1.31-2.01 2.65-4.01 4-6 0.474-0.825 0.949-1.65 1.44-2.5 1.93-3.08 4.2-5.74 6.56-8.5 2.71-3.26 5.01-6.55 7.19-10.2 3.05-4.86 6.49-8.94 10.4-13.1 3.23-3.61 6.14-7.44 9.05-11.3 4.16-5.53 4.16-5.53 6.36-7.38h2c0.211-0.54 0.423-1.08 0.641-1.64 1.86-3.24 4.44-5.61 7.11-8.18 3.37-3.29 6.68-6.55 9.69-10.2 2.36-2.76 4.73-4.75 7.56-7 1.19-1.45 2.38-2.89 3.55-4.36 2.3-2.6 4.94-4.78 7.59-7.03 2.01-1.69 2.01-1.69 4.24-4.05 1.62-1.56 1.62-1.56 3.62-1.56v-2h2c0.33-0.99 0.66-1.98 1-3 0.99-0.33 1.98-0.66 3-1 0.99-1.49 0.99-1.49 2-3h3c0.206-0.557 0.412-1.11 0.625-1.69 1.51-2.54 3.29-4.07 5.59-5.88 2.75-2.22 5.28-4.66 7.85-7.08 1.93-1.36 1.93-1.36 5.93-1.36 0.248-0.619 0.495-1.24 0.75-1.88 1.46-2.48 2.63-3.08 5.25-4.12v-2l5-1c0.33-0.99 0.66-1.98 1-3 3.21-1.89 5.25-3 9-3v-2c0.534-0.28 1.07-0.559 1.62-0.848 4.32-2.32 8.39-4.79 12.4-7.65 4.5-3.21 9.12-5.91 14-8.5 1.92-1.04 3.83-2.08 5.75-3.12 1.32-0.715 1.32-0.715 2.67-1.45 1.77-0.982 3.52-2 5.25-3.05 2.39-1.42 4.74-2.37 7.32-3.38 0.969-0.495 1.94-0.99 2.94-1.5 3.06-1.5 3.06-1.5 6.38-2.56 2.83-0.636 2.83-0.636 3.69-2.94 1.83-0.895 1.83-0.895 4.25-1.81 0.897-0.345 1.79-0.691 2.72-1.05 1.5-0.565 1.5-0.565 3.03-1.14 2.25-0.852 4.5-1.71 6.75-2.56 1.05-0.393 2.09-0.786 3.17-1.19 3.14-1.22 3.14-1.22 6.26-2.89 3.18-1.53 5.33-1.61 8.82-1.36v-2c14.2-5.77 14.2-5.77 19.5-6.44 3.49-0.37 3.49-0.37 6.24-2 4.22-2.02 8.37-2.69 13-3.47 3.38-0.609 5.4-1.16 8.3-3.1 4.45-1.74 8.96-2.65 13.6-3.54 2.31-0.416 2.31-0.416 4.3-1.03 3.69-0.773 7.45-0.335 11.2-0.176 2.89 0.00406 2.89 0.00406 4.72-1.7 2.56-1.85 4.41-2.2 7.52-2.69 1.04-0.166 2.09-0.332 3.17-0.503 1.65-0.242 1.65-0.242 3.34-0.49 1.68-0.259 1.68-0.259 3.4-0.523 7.15-1.07 14.2-1.87 21.4-2.18 2.25 0.0758 2.25 0.0758 3.28-1.18 3.52-0.238 7.04-0.396 10.6-0.518 0.746-0.0342 1.49-0.0683 2.26-0.104 0.68-0.0251 1.36-0.0501 2.06-0.0759 2.19-0.216 2.19-0.216 4.35-1.31 3.18-1.15 5.66-1.25 9.03-1.26zm272 187v2c-0.866-0.0825-1.73-0.165-2.62-0.25-4.18 0.31-6.07 1.75-9.38 4.25-1.49 0.99-1.49 0.99-3 2 0.33 1.32 0.66 2.64 1 4h-6c0.33 0.99 0.66 1.98 1 3h4c0.0928 1.08 0.0928 1.08 0.188 2.19 1.07 3.7 2.92 5.34 5.81 7.81h2c0.33 0.99 0.66 1.98 1 3h4c0.33 2.97 0.66 5.94 1 9 3.96 0.33 7.92 0.66 12 1-0.33 0.66-0.66 1.32-1 2-2.07 0.414-2.07 0.414-4.56 0.625-0.826 0.0748-1.65 0.15-2.5 0.227-0.638 0.049-1.28 0.098-1.93 0.148v1c3.3 0.33 6.6 0.66 10 1-0.33 0.66-0.66 1.32-1 2-2.98 0.598-5.96 0.743-9 1v9h2v9c2.64 0.99 5.28 1.98 8 3v-3h11v3h2v4c-0.66 0.33-1.32 0.66-2 1h2v4h-10v7c5.25 1.15 10.1 0.931 15.4 0.562 0.831-0.0522 1.66-0.104 2.52-0.158 2.04-0.129 4.07-0.266 6.11-0.404v3l-21 1c0.33 0.66 0.66 1.32 1 2 9.9-0.495 9.9-0.495 20-1v3l-21 1v1h5c0.33 1.32 0.66 2.64 1 4h2v11h-6v2c-0.66 0.33-1.32 0.66-2 1h2v2h-2v3h2v2h-10v-3h-2c-0.186-1.05-0.186-1.05-0.375-2.12-0.663-3.05-1.6-5.93-2.62-8.88h-2v-10h-7c-0.964-2.5-1.92-5-2.88-7.5-0.269-0.696-0.539-1.39-0.816-2.11-1.8-4.75-3.16-9.44-4.31-14.4-0.331-1.33-0.664-2.67-1-4h2c-0.33-0.99-0.66-1.98-1-3-0.66-0.33-1.32-0.66-2-1 1.32-0.66 2.64-1.32 4-2-0.33-6.27-0.66-12.5-1-19-0.99-0.33-1.98-0.66-3-1-0.33-0.66-0.66-1.32-1-2-0.33 0.99-0.66 1.98-1 3-0.99-0.33-1.98-0.66-3-1 0.66-1.65 1.32-3.3 2-5h-2c0.66-1.65 1.32-3.3 2-5-0.652-0.0606-1.3-0.121-1.98-0.184-1.81-0.173-3.61-0.356-5.42-0.547-1.97-0.204-3.94-0.371-5.92-0.52-3.63-1.01-5.24-2.96-7.69-5.75-2.92-2.92-6.05-2.86-10-3-3.04 0.167-6.05 0.429-9.07 0.746-4.25 0.368-7.86 0.612-11.9-0.746v2h2v3h-13c-0.33-1.32-0.66-2.64-1-4-47.2-0.0458-94.4-0.081-142-0.102-5.57-0.0025-11.1-0.00509-16.7-0.00773-1.11-5.25e-4 -2.22-0.00105-3.36-0.00159-18-0.00871-35.9-0.0245-53.9-0.0429-18.4-0.0187-36.8-0.0298-55.3-0.0339-11.4-0.00275-22.7-0.0114-34.1-0.0277-7.79-0.0106-15.6-0.0138-23.4-0.0112-4.5 0.00128-9-7.21e-4 -13.5-0.0114-4.12-0.00971-8.23-0.0102-12.3-0.00339-1.49 8.48e-4 -2.98-0.00171-4.47-0.00797-2.02-8e-3 -4.05-0.00252-6.07 0.00367-1.69-0.00114-1.69-0.00114-3.41-0.0023-3.05 0.253-5.23 0.987-8 2.25h-4c-0.33 0.66-0.66 1.32-1 2-0.619 0.144-1.24 0.289-1.88 0.438-2.21 0.394-2.21 0.394-3.62 2.06-1.77 1.77-3.07 2.08-5.5 2.5-0.345 1.33-0.675 2.66-1 4-0.309 1.18-0.309 1.18-0.625 2.38-0.539 2.65-0.539 2.65 0.242 5.31 0.473 4.1-0.531 7.2-1.87 11-0.476 1.43-0.949 2.86-1.42 4.29-0.231 0.691-0.463 1.38-0.701 2.1-0.799 2.45-1.48 4.93-2.13 7.42-1.35 5.08-2.93 10.1-4.52 15.1-1.92 6.09-3.63 12.2-5.28 18.4-1.03 3.8-2.21 7.38-3.7 11-0.437 2.05-0.874 4.1-1.3 6.16-1.06 4.32-2.45 8.53-3.81 12.8-1.3 4.08-2.43 8.15-3.39 12.3-0.977 4.12-2.3 7.82-4 11.7-1.8 4.12-3.06 8.04-4 12.4-2.34 10.9-6.66 21.1-11 31.4-2.21 5.32-3.95 10.7-5.56 16.2-0.967 3.07-2.13 5.96-3.39 8.91-10.1 23.5-14.3 47.8-9.56 73.1 0.24 1.58 0.24 1.58 0.484 3.19 2.98 17.1 11.6 32.7 20.2 47.5 1.41 2.43 2.81 4.87 4.2 7.32 0.96 1.68 1.92 3.36 2.88 5.04 0.436 0.761 0.871 1.52 1.32 2.31 2.24 3.88 4.59 7.64 7.11 11.3 2.15 3.19 3.84 6.23 5.2 9.85 4.36 11 10 21.4 15.6 31.8 2.8 5.21 5.44 10.5 8.06 15.8 2.16 4.34 4.42 8.61 6.75 12.9 1.79 3.29 3.47 6.46 4.69 10 1.32 3.79 3.05 7.36 4.88 10.9 0.565 1.12 1.13 2.25 1.71 3.4 1.67 2.88 1.67 2.88 4.64 3.54 0.75 0.04 1.5 0.0799 2.27 0.121 6.64-12.7 13.1-25.7 16.2-39.8 1.43-5.72 3.41-11.3 5.31-16.8l0.746-2.19c0.507-1.48 1.02-2.96 1.54-4.44 1.55-4.48 2.72-8.9 3.7-13.5 0.871-3.75 2.13-7.35 3.39-11 0.538-1.58 1.07-3.16 1.61-4.74 0.26-0.767 0.519-1.53 0.787-2.32 1.35-4.03 2.56-8.11 3.8-12.2 1.24-4.01 2.58-7.98 3.93-12 1.07-3.25 2.07-6.52 3.07-9.8 1.08-3.55 2.2-7.05 3.56-10.5 1.01-2.75 1.69-5.05 2.25-7.88 0.83-4.05 2.13-7.81 3.56-11.7 1.61-4.37 3-8.65 4.06-13.2 1.33-5.65 3.24-11 5.24-16.4 1.67-4.74 3.01-9.55 4.35-14.4 0.975-3.43 2.09-6.78 3.3-10.1 1.48-4.99 1.8-9.94 1.86-15.1 0.0258-1.19 0.0516-2.37 0.0781-3.6-0.363-3.69-1.03-5.45-3.33-8.34-5.14-3.48-11-5.53-17-7-1.83-0.496-3.67-0.996-5.5-1.5-1.31-0.356-1.31-0.356-2.66-0.719-30-8.24-30-8.24-38.9-12.8-2.16-1.14-2.16-1.14-5.69-1.68-6.06-1.25-11.7-3.59-17.4-5.81-2.84-1.09-5.69-2.06-8.61-2.94-5.34-1.75-10.6-4.18-15.2-7.5-0.812-2.19-0.812-2.19-1-4 3.3-0.987 6.28-1.13 9.71-1.13 1.17-0.00282 2.33-0.00564 3.53-0.00854 1.27 0.00202 2.55 0.00405 3.86 0.00613 1.36-0.00136 2.72-0.00314 4.08-0.00531 3.69-0.00456 7.37-0.00279 11.1 3.79e-4 3.85 0.00253 7.71 1.84e-4 11.6-0.00139 6.47-0.00182 12.9 5.78e-4 19.4 0.00534 7.49 0.00545 15 0.00367 22.5-0.00183 6.42-0.00453 12.8-0.00518 19.3-0.00256 3.84 0.00156 7.68 0.00176 11.5-0.00154 3.61-0.00288 7.21-9.04e-4 10.8 0.00489 1.96 0.00196 3.92-0.00103 5.89-0.00413 1.74 0.00423 1.74 0.00423 3.51 0.00854 1.01 3.77e-4 2.02 7.54e-4 3.07 0.00114 2.27 0.126 2.27 0.126 3.27 1.13-0.14 3.68-0.602 7.34-1 11-0.155 1.76-0.155 1.76-0.312 3.56-0.769 3.84-2.13 7.11-3.65 10.7-1.07 2.83-1.79 5.6-2.47 8.54-1.02 4.34-2.34 8.36-4 12.5-2.35 5.88-3.97 11.8-5.53 17.9-1.34 4.9-3.07 9.63-4.82 14.4-1.7 4.71-3.15 9.49-4.58 14.3-0.755 2.51-1.52 5.01-2.29 7.52-3.81 12.4-3.81 12.4-7.4 24.9-1.65 5.87-3.65 11.6-5.72 17.3-2.05 5.7-3.72 11.4-5.26 17.3-0.957 3.05-0.957 3.05-2.43 5.88-1.92 3.99-2.84 7.92-3.78 12.2-0.186 0.79-0.371 1.58-0.562 2.39-1.31 5.8-1.31 5.8-0.188 11.5 3.47 4.23 7.7 6.71 13 8-2.97 0.33-5.94 0.66-9 1-0.33 0.99-0.66 1.98-1 3-3.63-0.33-7.26-0.66-11-1-0.66 1.98-1.32 3.96-2 6h3c-1.78 4.93-3.56 9.86-5.43 14.8-2.53 6.66-4.98 13.3-7.2 20.1-1.63 4.99-3.39 9.86-5.48 14.7-0.998 2.58-0.998 2.58-1.73 5.92-1.44 5.96-3.57 11.7-5.6 17.5-1.52 4.35-3.05 8.71-4.56 13.1-0.28 0.803-0.56 1.61-0.848 2.43-1.34 3.93-2.52 7.86-3.59 11.9-1.61 6-3.52 11.9-5.5 17.8-0.335 1.01-0.669 2.02-1.01 3.06-1.89 5.66-3.93 11.2-6.29 16.7-1.21 3.52-1.02 6.51-0.757 10.2v3c0.654 2 1.32 4 2 6 0.819 3.64 1.4 7.32 2 11h8v5c3.23 1.46 6.22 2.23 9.69 2.81 2.38 0.488 2.38 0.488 4.31 1.19 1.12 2.5 1.12 2.5 2 5 1.13 0.206 2.27 0.412 3.44 0.625l3.56 1.38c1.56 3.56 2.33 7.18 3 11h5v2c1.44 0.816 2.87 1.63 4.31 2.44 0.801 0.452 1.6 0.905 2.43 1.37 2.32 1.3 2.32 1.3 5.26 2.19v2c5.37 3.39 9.87 3.33 16 3v3h9c0.66 2.31 1.32 4.62 2 7h2c0.33 1.32 0.66 2.64 1 4 0.33-0.66 0.66-1.32 1-2 0.098 0.568 0.196 1.14 0.297 1.72 1.07 5.51 2.69 9.55 5.7 14.3h-1c-0.516 5.42 0.917 7.63 4 12 0.607 1.41 1.19 2.82 1.75 4.25 1.58 3.72 3.52 6.48 6.12 9.56 3.78 4.5 6.33 9.11 8.8 14.4 1.99 4.14 4.01 7.59 7.32 10.8 0.431 0.581 0.861 1.16 1.3 1.76 1.72 2.33 1.72 2.33 3.92 4.75 4.97 5.66 7.51 8.96 7.77 16.5 1.28 2.94 1.28 2.94 3 5h2v2h2v2c1.98 0.66 3.96 1.32 6 2 0.0606 0.626 0.121 1.25 0.184 1.9 0.0838 0.817 0.168 1.63 0.254 2.48 0.0812 0.812 0.162 1.62 0.246 2.46 0.207 2.21 0.207 2.21 1.32 4.16 2.32 0.407 4.66 0.744 7 1v2c3.96 0.33 7.92 0.66 12 1v-3h31v3h2v-3h27v3h7c0.33 0.99 0.66 1.98 1 3v-6h4c0.33 0.66 0.66 1.32 1 2 0.66-0.99 1.32-1.98 2-3 0.99 0.33 1.98 0.66 3 1 0.66-0.33 1.32-0.66 2-1 0.66 0.33 1.32 0.66 2 1 1.37 0.0689 2.75 0.0847 4.12 0.0625 1.92-0.0309 1.92-0.0309 3.88-0.0625v-2c1.13 0.165 2.27 0.33 3.44 0.5 2.27 0.356 2.27 0.356 4.56 0.5 0.33-2.31 0.66-4.62 1-7 2.31-0.66 4.62-1.32 7-2 1.12 3.75 1.12 3.75 0 6 0.33 0.99 0.66 1.98 1 3h2v-3h20v4h9c0.66 1.32 1.32 2.64 2 4 3.09 2.06 3.71 2.24 7.19 2.12 1.89-0.0619 1.89-0.0619 3.81-0.125v-7h-11c-0.33-1.32-0.66-2.64-1-4h10c-1.32-0.33-2.64-0.66-4-1-0.33-0.66-0.66-1.32-1-2v2h-4c-0.33-1.32-0.66-2.64-1-4h10v-2h2v2h3v-2h2v2h7v-4h2c-0.656-3.61-0.656-3.61-2-7h-16v-2h3v-2h4c0.33 0.66 0.66 1.32 1 2v-2h4c0.33 0.99 0.66 1.98 1 3v-3c0.99-0.33 1.98-0.66 3-1h-16v-2h3v-2h4c0.33 0.66 0.66 1.32 1 2v-2h4c0.33 0.99 0.66 1.98 1 3v-3h41v-4h3v-2h3v-4h14c-0.99-0.33-1.98-0.66-3-1v-3h3v-2h-3v-3c5.61-0.33 11.2-0.66 17-1-0.33-3.3-0.66-6.6-1-10 0.99-0.33 1.98-0.66 3-1h-27v-3c0.747 0.0105 1.49 0.0209 2.26 0.0317 3.37 0.0415 6.74 0.0676 10.1 0.0933 1.18 0.0168 2.35 0.0335 3.56 0.0508 1.12 0.00645 2.24 0.0129 3.4 0.0195 1.04 0.0105 2.07 0.0209 3.14 0.0317 2.69 0.0291 2.69 0.0291 4.52-2.23h-27c0.33-0.99 0.66-1.98 1-3 0.696 0.0105 1.39 0.0209 2.11 0.0317 3.17 0.0417 6.34 0.0676 9.52 0.0933 1.09 0.0168 2.19 0.0335 3.32 0.0508 7.71 0.0495 7.71 0.0495 15.1-2.18v-2h16c0.33 0.99 0.66 1.98 1 3v-3h3c0.66 0.99 1.32 1.98 2 3v-3h3c0.33 0.99 0.66 1.98 1 3h15c-0.99-0.33-1.98-0.66-3-1v-4c0.66-0.33 1.32-0.66 2-1h-2v-4h2c0.0271-1.6 0.0464-3.21 0.0625-4.81 0.0174-1.34 0.0174-1.34 0.0352-2.71 0.0124-2.61 0.0124-2.61-1.1-5.48 0.681 0.186 1.36 0.371 2.06 0.562 3.51 0.523 6.46 0.0513 9.94-0.562v3h32v-1h-27c0.33-1.32 0.66-2.64 1-4h14v-1h-15c0.33-1.32 0.66-2.64 1-4h14v-6h4c0.33 0.66 0.66 1.32 1 2 0.33-1.98 0.66-3.96 1-6h4c0.33 1.32 0.66 2.64 1 4v-4h4v4h14v-10h4c0.33 0.66 0.66 1.32 1 2v-2c0.66-0.33 1.32-0.66 2-1-1.94-0.027-3.87-0.0464-5.81-0.0625-1.62-0.0174-1.62-0.0174-3.27-0.0352-2.98-0.0386-2.98-0.0386-5.92 1.1v-4c4.95-0.33 9.9-0.66 15-1v-1h-13v-4h4c0.33 0.66 0.66 1.32 1 2v-2h17v-4h10v-1c-4.62-0.33-9.24-0.66-14-1v-5h-2v-2h2v-3h-2v-2h3v-2h6v-4h10v-1h-9v-4c1.32-0.33 2.64-0.66 4-1h-4v-4h4c0.33-0.99 0.66-1.98 1-3 1.29-1.38 2.63-2.71 4-4 1.37-1.29 2.71-2.62 4-4v-2h2c0.33-3.3 0.66-6.6 1-10 1.32-0.33 2.64-0.66 4-1v-4h5c0.309-1.11 0.619-2.23 0.938-3.38 1.06-3.62 1.06-3.62 2.06-5.62 2.06-0.625 2.06-0.625 4-1v-4h13v10c1.32-0.33 2.64-0.66 4-1h-3v-4c0.99-0.33 1.98-0.66 3-1h-3v-4h16v-1h-20v-6h-3v-2h2c0.33-0.99 0.66-1.98 1-3h-3v-2h2v-2h7v-4h24v-1h-23v-4c0.66-0.33 1.32-0.66 2-1h-2v-4h2v-6h4v-4h11v-1h-9c1-3 1-3 3-5h-3c0.33-0.99 0.66-1.98 1-3 0.66-0.33 1.32-0.66 2-1 0.834-2.08 0.834-2.08 1.5-4.5 0.719-2.47 0.719-2.47 1.5-4.5 0.66-0.33 1.32-0.66 2-1 0.47-3.05 0.47-3.05 0.625-6.56 0.0748-1.2 0.15-2.4 0.227-3.63 0.049-0.927 0.098-1.85 0.148-2.81 1.65-0.66 3.3-1.32 5-2v-3h4c0.33-3.3 0.66-6.6 1-10h16v-10h4c0.33 0.66 0.66 1.32 1 2v-2h5v-1h-16v-3c5.28-0.33 10.6-0.66 16-1v-1h-16v-3l19-1c-0.66-1.32-1.32-2.64-2-4v3h-3v-3h-2v3h-3v-4h6c-0.33-1.32-0.66-2.64-1-4h-2v3h-3v-4h6c-0.99-0.33-1.98-0.66-3-1v-4c0.99-0.33 1.98-0.66 3-1h-3v-4h7c-0.33-3.3-0.66-6.6-1-10 1.32-0.33 2.64-0.66 4-1-0.33-2.97-0.66-5.94-1-9 1.32-0.33 2.64-0.66 4-1h-7v-4c0.66-0.33 1.32-0.66 2-1h-2v-4h2v-6h2v-5h-4c0.14-2.31 0.287-4.63 0.438-6.94 0.0812-1.29 0.162-2.58 0.246-3.9 0.316-3.16 0.316-3.16 1.32-4.16 0.0996-1.94 0.13-3.87 0.125-5.81 0.00387-1.59 0.00387-1.59 0.00781-3.21-0.112-2.52-0.402-4.58-1.13-6.98 1.32-0.33 2.64-0.66 4-1h-3v-4c0.99-0.33 1.98-0.66 3-1h-3v-4h7v-1h-5v-3h5v-2h-5v-3c5.94-0.33 11.9-0.66 18-1v-4c0.66-0.33 1.32-0.66 2-1h-4c-0.0374-0.652-0.0748-1.3-0.113-1.98-0.393-5.22-0.745-9.65-3.89-14-2.66-0.98-4.68-1.01-7.5-0.938-2.5-0.0625-2.5-0.0625-4.75-1.06-3.91-1.42-7.63-1.16-11.8-1v-3h8v-2h-8v-3h8v-1h-8v-4h6v-1h-6c-0.33-1.65-0.66-3.3-1-5h-7v-4c0.66-0.33 1.32-0.66 2-1h-2v-4h4c0.33 0.66 0.66 1.32 1 2 1.32-3.97 1.13-7.05 0-11 0.66-0.33 1.32-0.66 2-1v4h2v-4h6c-1.32-0.33-2.64-0.66-4-1v-16h-8c0.33-3.3 0.66-6.6 1-10h-4c-0.33-3.3-0.66-6.6-1-10h-3v-4c0.66-0.33 1.32-0.66 2-1h-2v-4h2v-4c0.66-0.33 1.32-0.66 2-1h-5v-6h-4v-4l4-1h-4v-4h12v-1h-9v-3h-4v-3h-2v-4h-2c0.33-3.3 0.66-6.6 1-10h-8v-6h-6v-4h6v-1h-6v-4h4c0.33 0.66 0.66 1.32 1 2v-2h8v-1h-14c0-3 0-3 2-5h-2c0-3 0-3 2-5h-8v-4h8v-1h-8v-4h27v-3c1.49-0.495 1.49-0.495 3-1-2.99-0.872-5.64-1.11-8.75-1.06-0.799 0.00902-1.6 0.018-2.42 0.0273l-1.83 0.0352c-0.33-0.66-0.66-1.32-1-2v3h-10v-3h-18v-4h18v-1h-18v-4h4c0.33 0.66 0.66 1.32 1 2v-2h30v-1h-17v-4h-5v4h-15v-6h-6v-4h6v-1h-6v-4h4c0.33 0.66 0.66 1.32 1 2v-2c1.49-0.495 1.49-0.495 3-1h-2v-4h-6v-2h-4v-4h-4v-4c1.32-0.33 2.64-0.66 4-1h-4v-4h11c-1.32-0.33-2.64-0.66-4-1v-3c-1.98-0.33-3.96-0.66-6-1v-2h-10v-4h6v-1h-6v-4h4c0.33 0.66 0.66 1.32 1 2 0.33-1.65 0.66-3.3 1-5l1.83 0.0352c0.799 0.00902 1.6 0.018 2.42 0.0273l2.39 0.0352c2.27-0.0938 4.19-0.465 6.36-1.1v-2h4c0.33 0.66 0.66 1.32 1 2v-2h4c0.33 0.66 0.66 1.32 1 2v-3c1.49-0.495 1.49-0.495 3-1-5.37-0.682-10.6-1.12-16-1v-2h-36v-4h26v-1h-26v-4h4c0.33 0.66 0.66 1.32 1 2v-2h21v-3c0.66-0.33 1.32-0.66 2-1-1.26-0.103-2.52-0.206-3.81-0.312-3.85-0.315-3.85-0.315-5.56-2.19-1.99-1.84-2.96-1.91-5.63-2.01-0.757-0.0354-1.51-0.0709-2.29-0.107-0.786-0.0226-1.57-0.0451-2.38-0.0684-0.797-0.0342-1.59-0.0683-2.42-0.104-1.97-0.0824-3.93-0.147-5.9-0.209v-2h-8c0.33 2.31 0.66 4.62 1 7h3v4c-1.49 0.495-1.49 0.495-3 1h3v4h-20v-4h-11v-4h6v-1h-6v-4h4c0.33 0.66 0.66 1.32 1 2 0.33-0.99 0.66-1.98 1-3h-3v-6h-5v-4h5v-1h-5v-4h4c0.33 0.66 0.66 1.32 1 2v-2h22v-1h-24v-4h-2c-0.33-0.66-0.66-1.32-1-2v2c-5.28-0.33-10.6-0.66-16-1v-2h-10c-0.33-0.99-0.66-1.98-1-3z" fill="#009BEB"/>
<path transform="translate(1016 277)" d="m0 0c3.89 4.41 6.14 8.72 8.13 14.2 0.297 0.791 0.594 1.58 0.9 2.4 1.96 5.33 3.5 10.7 4.74 16.2 0.674 2.73 1.55 5.27 2.54 7.89 1.68 4.47 3.11 8.98 4.44 13.6 2.06 7.12 4.17 14.2 6.31 21.3 0.289 0.963 0.578 1.93 0.876 2.92 1.27 4.2 2.59 8.36 4.15 12.5 1.18 3.1 2 6.13 2.75 9.36 0.956 3.52 2.29 6.89 3.6 10.3 0.992 2.88 1.71 5.78 2.42 8.74 1.04 3.91 2.45 7.68 3.83 11.5 4.79 13.5 9.1 27.1 13 40.9 0.979 3.41 2.06 6.73 3.33 10 1.17 3.11 1.99 6.11 2.75 9.34 1.21 4.37 2.86 8.59 4.45 12.8 0.863 2.52 1.57 4.9 2.19 7.47 1.03 4.3 2.5 8.38 4.03 12.5 5.15 14.4 7.59 27.1 1 41.6-0.317 0.705-0.634 1.41-0.96 2.14-3.49 7.71-7.02 15.4-11.4 22.6-3.99 6.58-7.16 13.5-10.4 20.5-2.82 5.97-5.75 11.8-8.88 17.7-2.93 5.43-5.67 10.9-8.25 16.5-4.97 10.8-10.6 21.2-16.2 31.6-5.27 9.82-10.3 19.7-15.2 29.8-3.56 7.28-7.59 14.3-11.7 21.3-0.531 0.95-1.06 1.9-1.61 2.88-1.39 2.12-1.39 2.12-3.52 2.75-0.619 0.124-1.24 0.247-1.88 0.375-0.33 0.99-0.66 1.98-1 3-2.33-0.586-2.33-0.586-5-2-1.51-2.98-1.51-2.98-2.69-6.62-0.594-1.78-0.594-1.78-1.2-3.6-0.941-3.19-1.76-6.39-2.55-9.62-1.1-4.19-2.48-8.29-3.82-12.4-2.4-7.45-4.72-14.9-6.94-22.4-1.79-6.04-3.71-12-5.95-17.9-1.25-3.52-2.16-7.12-3.06-10.7-0.806-2.69-1.88-5.18-3.01-7.75-1.5-3.65-2.59-7.43-3.74-11.2-1.65-5.34-3.33-10.6-5.31-15.9-1.45-3.85-2.38-7.61-3.19-11.6-0.838-3.36-2.22-6.45-3.55-9.64-1.03-2.68-1.79-5.33-2.5-8.1-0.904-3.5-1.95-6.75-3.38-10.1-2.15-5.18-3.6-10.5-5.06-15.9-3.9-14.4-8.31-28.6-13.1-42.7-1.77-5.37-3.14-10.3-1.25-15.9 2.9-5.68 6.83-7.65 12.7-9.8 4.89-1.53 9.82-2.89 14.8-4.19 5.08-1.36 9.89-3.04 14.7-5.07 5.38-2.25 10.6-3.87 16.3-5.16 3.91-0.985 7.62-2.39 11.4-3.85 2.48-0.871 4.89-1.37 7.47-1.87 1.88-0.691 3.75-1.39 5.62-2.11 3.81-1.42 7.68-2.66 11.6-3.93 5.41-1.84 10.4-4.21 15.4-6.84 2.15-1 4.09-1.65 6.4-2.12 0.382-1.66 0.714-3.32 1-5-1.71-1.71-3.95-1.14-6.29-1.15-1.72-0.0107-1.72-0.0107-3.48-0.0217-1.27-0.00269-2.54-0.00538-3.85-0.00815-1.34-0.00626-2.69-0.0129-4.03-0.0199-3.66-0.0174-7.32-0.028-11-0.0362-2.28-0.00515-4.57-0.0112-6.85-0.0175-7.14-0.0191-14.3-0.0333-21.4-0.0416-8.25-0.00977-16.5-0.0361-24.8-0.0765-6.37-0.0301-12.7-0.045-19.1-0.0483-3.81-0.00235-7.62-0.0114-11.4-0.0365-3.58-0.0232-7.17-0.0275-10.8-0.0172-1.94 7.33e-4 -3.89-0.0184-5.83-0.0381-1.16 0.00694-2.31 0.0139-3.51 0.021-1.51-0.00358-1.51-0.00358-3.05-0.00724-3.35 0.63-4.51 1.89-6.63 4.49-2.28 4.55-1.38 10.4 0.102 15.1 0.495 1.4 1 2.8 1.52 4.2 0.558 1.58 1.11 3.16 1.66 4.74 0.285 0.812 0.57 1.62 0.864 2.46 1.4 4.13 2.62 8.31 3.85 12.5 2.15 7.29 4.46 14.5 6.89 21.7 1.43 4.25 2.81 8.51 4.11 12.8 1.82 6 3.79 11.9 5.81 17.9 1.86 5.5 3.54 11 5.19 16.6 5.15 17.1 10.3 34.3 16.1 51.2 8.17 23.9 8.17 23.9 4.57 31.6-1.69 2.19-1.69 2.19-4.69 4.19-2.26 0.255-2.26 0.255-4.97 0.263-1.03 0.00768-2.07 0.0154-3.13 0.0233-1.71-0.0026-1.71-0.0026-3.45-0.00525-1.21 0.00594-2.41 0.0119-3.66 0.018-3.35 0.0144-6.71 0.0197-10.1 0.0212-3.62 0.0037-7.23 0.0188-10.8 0.0323-7.91 0.0272-15.8 0.0392-23.7 0.048-4.94 0.00552-9.88 0.014-14.8 0.023-13.7 0.0244-27.3 0.045-41 0.0518-0.875 4.39e-4 -1.75 8.78e-4 -2.65 0.00133-0.877 4.37e-4 -1.75 8.73e-4 -2.66 0.00132-1.78 8.87e-4 -3.55 0.00178-5.33 0.00268-0.882 4.43e-4 -1.76 8.86e-4 -2.67 0.00134-14.3 0.0079-28.6 0.0428-42.9 0.0894-14.7 0.0474-29.3 0.0724-44 0.0747-8.23 0.00183-16.5 0.0133-24.7 0.0496-7.01 0.0308-14 0.041-21 0.0245-3.58-0.00782-7.15-0.00594-10.7 0.0221-3.88 0.0301-7.76 0.0138-11.6-0.00716-1.69 0.0242-1.69 0.0242-3.42 0.0488-6.27-0.0793-9.9-0.785-14.4-5.27-1.81-2.27-2.25-3.59-2.21-6.52 0.369-2.9 0.96-5.72 1.62-8.56 0.183-0.804 0.366-1.61 0.555-2.44 1.34-5.6 3.17-10.7 5.54-16 1.75-4.15 3.04-8.41 4.34-12.7 1.28-4.23 2.64-8.41 4.07-12.6 3.14-9.17 5.82-18.4 8.33-27.8 1.62-5.94 3.45-11.7 5.65-17.5 0.895-2.49 1.61-4.98 2.27-7.54 1.92-7.35 4.43-14.5 6.87-21.7 1.03-3.05 2.05-6.1 3.06-9.16 0.717-2.14 1.46-4.26 2.2-6.39 1.18-3.51 2.09-7.03 2.94-10.6 0.934-3.9 2.07-7.45 3.69-11.1 2.23-5.27 2.55-10.3 2.88-15.9 0.285-2.34 0.637-4.67 1-7-3.11-1.04-5.24-1.13-8.5-1.13-1.14-0.00282-2.29-0.00564-3.46-0.00854-1.25 0.00202-2.51 0.00405-3.8 0.00613-1.33-0.00135-2.67-0.00314-4-0.00531-3.62-0.00456-7.25-0.00279-10.9 3.79e-4 -3.79 0.00253-7.58 1.84e-4 -11.4-0.00139-6.37-0.00182-12.7 5.8e-4 -19.1 0.00534-7.36 0.00544-14.7 0.00368-22.1-0.00183-6.32-0.00454-12.6-0.00518-19-0.00256-3.77 0.00156-7.55 0.00177-11.3-0.00154-3.55-0.00289-7.1-8.84e-4 -10.6 0.00489-1.92 0.00195-3.85-0.00102-5.77-0.00413-1.15 0.00282-2.29 0.00564-3.47 0.00854-1.49 5.66e-4 -1.49 5.66e-4 -3.02 0.00114-2.36 0.114-4.35 0.453-6.61 1.13 0.943 3.55 1.7 4.8 4.8 6.88 1.16 0.556 2.32 1.11 3.51 1.68 0.622 0.299 1.24 0.598 1.89 0.906 5.12 2.38 10.3 4.09 15.8 5.63 2.86 0.851 5.54 1.87 8.28 3.03 3.08 1.28 5.98 2.22 9.25 2.88 3.14 0.631 5.92 1.5 8.88 2.75 5.01 2.1 10.1 3.75 15.3 5.38 0.808 0.254 1.62 0.507 2.45 0.769 6.38 1.98 12.8 3.83 19.2 5.54 20.3 5.56 20.3 5.56 24.3 10.8 4.5 9.63 0.67 22.9-2.62 32.4-0.651 1.75-1.31 3.5-1.98 5.25-1.64 4.57-2.95 9.23-4.27 13.9-1.01 3.55-2.11 7-3.44 10.4-1.03 2.74-1.8 5.08-2.28 7.93-0.808 3.96-2.13 7.55-3.62 11.3-1.74 4.37-3.03 8.48-3.91 13.1-0.754 3.11-1.85 6.04-2.96 9.04-1.85 5.01-3.37 9.96-4.69 15.1-1.3 5.08-2.88 9.77-4.93 14.6-1.51 4-2.51 8.13-3.57 12.3-1 3.89-2.17 7.6-3.67 11.3-0.854 2.33-1.49 4.67-2.13 7.07-1.6 5.93-3.34 11.8-5.13 17.7-0.443 1.47-0.443 1.47-0.895 2.97-1.29 4.23-2.6 8.42-4.2 12.5-0.998 2.57-1.76 5.09-2.39 7.78-1.01 4.27-2.56 8.22-4.27 12.3-0.304 0.731-0.609 1.46-0.922 2.22-2.67 6.32-5.63 12.5-8.83 18.5-2.21 0.00781-2.21 0.00781-5-1-1.93-2.5-3.25-5.29-4.62-8.12-0.382-0.748-0.763-1.5-1.16-2.27-2.26-4.47-4.26-9.01-6.22-13.6-1.19-2.47-2.39-4.93-3.62-7.38-0.345-0.688-0.69-1.38-1.04-2.08-2.54-5.05-5.17-10.1-7.83-15-6.24-11.7-12.2-23.6-17.7-35.7-2.05-4.42-4.31-8.65-6.79-12.8-0.532-0.908-0.532-0.908-1.08-1.83-1.16-1.97-2.32-3.94-3.49-5.92-0.883-1.5-1.77-3.01-2.65-4.51-1.87-3.19-3.75-6.37-5.64-9.55-5.62-9.52-10.8-19-15.1-29.2-0.272-0.618-0.544-1.24-0.824-1.87-12-27.5-12.4-59.1-1.65-87.1 1.19-2.99 2.41-5.97 3.63-8.95 1.25-3.1 2.36-6.24 3.46-9.4 1.51-4.3 3.09-8.57 4.75-12.8 4.06-10.5 7.69-21.1 11.3-31.7 0.356-1.05 0.356-1.05 0.719-2.13 0.617-1.97 1.1-3.94 1.57-5.95 0.717-3.02 1.72-5.76 2.94-8.62 2.2-5.42 3.73-10.9 5.19-16.6 2.72-10.5 2.72-10.5 4.56-15.2 1.12-2.96 1.88-5.53 2.38-8.63 0.707-3.85 1.78-7.22 3.23-10.8 0.89-2.48 1.49-4.96 2.09-7.53 1.47-6.15 3.44-12.1 5.53-18 1.52-4.4 2.69-8.75 3.65-13.3 2.47-11.2 5.09-22.9 14.5-30.3 5.81-3.64 11.1-4.12 17.9-4.14 1.03-0.00471 1.03-0.00471 2.08-0.00952 2.3-0.00934 4.6-0.0116 6.9-0.014 1.66-0.00528 3.33-0.011 4.99-0.0171 4.58-0.0155 9.16-0.0249 13.7-0.0332 4.94-0.0101 9.87-0.0258 14.8-0.0408 9.67-0.0285 19.3-0.0516 29-0.0728 7.86-0.0173 15.7-0.0366 23.6-0.0572 1.12-0.00293 2.24-0.00586 3.39-0.00887 2.27-0.00596 4.54-0.0119 6.81-0.0179 21.3-0.0557 42.6-0.105 63.9-0.153 18.3-0.041 36.6-0.0873 54.9-0.137 21.2-0.0582 42.5-0.113 63.7-0.163 2.26-0.0053 4.53-0.0106 6.79-0.0159 1.11-0.00261 2.23-0.00522 3.38-0.00791 7.85-0.0186 15.7-0.0396 23.5-0.0616 9.57-0.0267 19.1-0.0497 28.7-0.0681 4.88-0.00947 9.76-0.0206 14.6-0.0361 4.47-0.0142 8.94-0.0236 13.4-0.0293 1.62-0.00288 3.23-0.00748 4.85-0.014 25.5-0.0995 25.5-0.0995 32.6 6.56z" fill="#FCFDFF"/>
<path transform="translate(810 802)" d="m0 0c0.66 0.274 1.32 0.549 2 0.832 3.99 1.68 7.88 3.49 11.7 5.5 2.08 1.02 4.19 1.84 6.36 2.66 4.54 1.77 8.85 3.86 13.2 6.06 11.4 5.79 23 11.1 34.8 16.3 4.71 2.07 9.32 4.31 13.9 6.64 2.66 1.32 5.34 2.56 8.03 3.79 1.35 0.619 1.35 0.619 2.72 1.25 1.84 0.842 3.68 1.68 5.52 2.5 4.85 2.25 8.49 4 11.3 8.75 2 6.5-0.157 10.3-3 16-0.765 1.76-1.51 3.54-2.25 5.31-0.638 1.52-0.638 1.52-1.29 3.07-1.1 2.73-2.15 5.47-3.17 8.23-4.44 11.9-9.91 22.1-17.3 32.4-0.641 0.904-1.28 1.81-1.94 2.74-10.5 14.2-24.7 25.6-42.4 28.9-14.6 1.96-29.3 1.43-43.4-2.8-6.58-1.68-12.4-0.538-18.7 1.69-6.48 1.97-12.8 2.01-19.6 1.97-1.28-0.00572-2.56-0.0114-3.87-0.0173-15-0.281-28.2-2.96-40.1-12.5-0.605-0.476-1.21-0.951-1.83-1.44-12-10.7-19.7-27.3-27.7-41-2.13-3.63-4.31-7.22-6.5-10.8-2.91-4.81-5.58-9.67-8.01-14.7-1.03-2.17-1.03-2.17-2.74-4.69-1.69-3.12-2.06-5.79-2.25-9.31 3.51-9.14 15.3-12.7 23.5-16.4 1.26-0.575 2.52-1.15 3.78-1.73 7.75-3.54 15.5-6.99 23.4-10.4 5.5-2.39 10.9-4.92 16.4-7.46 0.71-0.333 1.42-0.665 2.15-1.01 2.39-1.12 4.77-2.24 7.16-3.37 0.813-0.383 1.63-0.766 2.46-1.16 3.83-1.82 7.64-3.66 11.4-5.61 9.36-4.85 18.8-8.57 28.8-11.9 6.33-2.11 11.5-0.824 17.4 1.75z" fill="#FCFDFF"/>
<path transform="translate(636,641)" d="m0 0c11 4.35 19.7 10.3 29 17.5 3.02 2.29 6.11 4.47 9.2 6.65 5.67 4.01 11.2 8.2 16.7 12.5 7.79 6.03 15.7 11.9 23.7 17.6 6.53 4.71 13.1 9.43 19.6 14.2 0.769 0.558 1.54 1.12 2.33 1.69 4.44 3.26 8.6 6.7 12.7 10.4 2.46 2.1 5.12 3.8 7.83 5.57 6.13 4.5 12.1 9.24 18 14 0.629 0.505 1.26 1.01 1.91 1.53 8.22 6.71 14.8 13.8 16.6 24.6 0.356 6.84-1.02 12.6-5.53 17.9-1.33 0.667-2.67 1.33-4 2-0.33 0.99-0.66 1.98-1 3-2.34 1.36-4.62 2.54-7.06 3.69-1.47 0.712-2.94 1.42-4.41 2.14-0.754 0.361-1.51 0.723-2.29 1.1-2.76 1.33-5.49 2.71-8.22 4.09-6.84 3.46-13.7 6.76-20.7 10-4.68 2.19-9.3 4.47-13.9 6.81-6.82 3.45-13.7 6.69-20.7 9.88-0.982 0.452-1.96 0.903-2.97 1.37-18.7 8.54-31.9 13-52 5.81-5.86-2.32-11-4.79-15.8-8.86v-2c-0.763-0.268-1.53-0.536-2.31-0.812-2.72-1.2-3.64-2.12-5.69-4.19-1.88-1.5-3.78-2.98-5.69-4.44-0.844-0.647-0.844-0.647-1.7-1.31-3.22-2.46-6.45-4.89-9.71-7.3-19.7-14.6-19.7-14.6-21.9-19-0.463-6.35 0.692-10.7 3.19-16.5 0.651-1.59 1.3-3.19 1.94-4.78 0.32-0.793 0.64-1.59 0.969-2.4 3.16-8.12 5.44-16.6 7.72-25 3.28-12.1 7.37-23.7 11.9-35.4 1.52-3.9 2.75-7.66 3.67-11.7 1.46-5.52 3.62-10.8 5.58-16.2 2.27-6.25 4.52-12.5 6.58-18.8 0.268-0.819 0.535-1.64 0.811-2.48 0.524-1.61 1.04-3.23 1.56-4.84 1.83-5.64 1.83-5.64 4.05-7.86z" fill="#FCFDFF"/>
<path transform="translate(958,643)" d="m0 0c8.92 7.51 11 20.1 14 30.7 1.08 3.52 2.49 6.7 4.07 10 1.5 3.66 2.26 7.48 3.16 11.3 0.703 2.68 1.57 5.09 2.65 7.64 2.45 5.83 4.11 11.9 5.85 17.9 1.13 3.94 2.35 7.86 3.59 11.8 0.407 1.31 0.813 2.62 1.22 3.93 0.804 2.59 1.63 5.17 2.47 7.75 10.7 32.8 10.7 32.8 5 46.9-1.3 2.09-1.3 2.09-2.75 3.94-0.526 0.669-1.05 1.34-1.59 2.03-0.547 0.672-1.09 1.34-1.66 2.04-0.547 0.682-1.09 1.36-1.66 2.07-2.99 3.63-2.99 3.63-4.34 4.93h-2c-0.33 0.99-0.66 1.98-1 3-2.47 2.55-5.27 4.73-8 7-0.712 0.633-1.42 1.27-2.16 1.92-15.3 13.1-35.5 21.2-55.8 20.1-20.8-1.72-37.6-10.4-54.1-22.5-6.43-4.69-13-7.87-20.5-10.5-4-1.58-7.86-3.47-11.7-5.32-3.65-1.73-7.29-3.29-11.1-4.68-4.85-1.88-8.63-4.57-12.6-7.94-1.39-1.18-1.39-1.18-2.81-2.38-3.99-4.79-5.84-10.2-5.53-16.5 2.31-14.4 13.3-22.2 24.4-30.2 3.36-2.45 6.59-5.01 9.78-7.67 4.43-3.68 8.99-7.09 13.7-10.4 1.78-1.29 3.51-2.65 5.2-4.05 2.3-1.77 2.3-1.77 4.3-1.77v-2c2.13-1.67 4.27-3.22 6.5-4.75 1.29-0.9 2.58-1.8 3.87-2.7 0.626-0.436 1.25-0.873 1.9-1.32 2.14-1.52 4.22-3.11 6.29-4.72 2.7-2.07 5.27-3.25 8.44-4.5 0.33-0.99 0.66-1.98 1-3 1.68-1.32 1.68-1.32 3.88-2.69 8.68-5.57 16.9-11.8 25.1-18 2.98-2.25 5.98-4.48 8.97-6.72 3.14-2.35 6.27-4.72 9.36-7.14 18.4-14.4 18.4-14.4 24.7-13.4z" fill="#FCFDFF"/>
<path transform="translate(1052 1163)" d="m0 0c1.18-9.57e-4 2.37-0.00191 3.59-0.0029 2.49-6.78e-4 4.99 0.00115 7.48 0.00534 3.79 0.00535 7.59 4.31e-5 11.4-0.00635 2.43 6.61e-4 4.87 0.00194 7.3 0.00391 1.12-0.00202 2.25-0.00405 3.4-0.00613 13.5 0.0398 23 0.816 33.3 10.1 0.557 0.474 1.11 0.949 1.69 1.44 3.92 4.66 4.53 8.62 4.31 14.6 0.156 0.777 0.312 1.55 0.473 2.36 1.72 8.63 0.853 16-3.47 23.6h-2c-0.371 0.928-0.371 0.928-0.75 1.88-1.46 2.48-2.63 3.08-5.25 4.12v2c-9.28 4.8-17.6 5.75-27.8 5.66-1.5 0.00338-3 0.00824-4.5 0.0145-3.13 0.00732-6.25-0.00317-9.38-0.0267-3.97-0.0285-7.95-0.0121-11.9 0.0179-3.09 0.0182-6.19 0.0123-9.28-6.39e-4 -1.46-0.0033-2.93 6.15e-4 -4.39 0.0124-9.52 0.0598-17.1-1.26-25.7-5.68v-2c-0.874-0.344-0.874-0.344-1.77-0.695-2.82-1.65-4.13-3.51-5.98-6.18-0.92-1.3-0.92-1.3-1.86-2.62-1.39-2.51-1.39-2.51-1.39-6.51h-2c-1.9-10-0.0649-20.1 5-29 2.44-2.12 2.44-2.12 5-4 0.577-0.66 1.15-1.32 1.75-2 9.04-8.04 21.4-7.15 32.8-7.13zm-22.6 24.1v2h-2c-0.351 1.24-0.701 2.47-1.06 3.75-0.296 1.04-0.296 1.04-0.598 2.11-0.383 2.41-0.169 3.85 0.66 6.14 1.85 2.27 1.85 2.27 4 4h2v2c6.48 2.34 12.6 2.29 19.5 2.27 1.19 0.00191 2.39 0.00383 3.62 0.0058 2.52 0.00136 5.04-0.00231 7.55-0.0107 3.84-0.0107 7.69-8.92e-5 11.5 0.0127 2.45-0.00132 4.9-0.00388 7.36-0.00781 1.72 0.00607 1.72 0.00607 3.47 0.0123 5.72-0.0335 10.6-0.327 16-2.28v-2c0.99-0.33 1.98-0.66 3-1v-2h2c0.196-1.6 0.381-3.21 0.562-4.81 0.104-0.893 0.209-1.79 0.316-2.71 0.278-2.61 0.278-2.61-0.879-5.48h-2c-0.495-1.48-0.495-1.48-1-3h-2v-2c-2.76-1.38-5.02-1.15-8.11-1.18-1.29-0.0128-2.57-0.0257-3.89-0.0389-1.41-0.00817-2.82-0.0156-4.23-0.0224-1.06-0.00611-1.06-0.00611-2.15-0.0124-3.75-0.0209-7.51-0.0352-11.3-0.0445-3.87-0.0111-7.75-0.0455-11.6-0.0852-2.98-0.0262-5.96-0.0345-8.94-0.0381-1.43-0.00487-2.86-0.0165-4.28-0.035-2-0.0244-4-0.021-6-0.0165-1.14-0.00587-2.28-0.0117-3.45-0.0178-3.72 0.594-5.41 1.84-8.06 4.49zm93-3 1 2zm-115 16 1 2z" fill="#009DEB"/>
<path transform="translate(640 1163)" d="m0 0c1.12-9.57e-4 2.24-0.00191 3.39-0.0029 2.36-6.77e-4 4.71 0.00115 7.07 0.00534 3.59 0.00535 7.18 3.95e-5 10.8-0.00635 2.3 6.61e-4 4.6 0.00194 6.9 0.00391 1.06-0.00202 2.13-0.00405 3.22-0.00613 9.15 0.0285 17.2 0.582 25.7 4.14v2c0.557 0.227 1.11 0.454 1.69 0.688 4.6 2.61 8.13 6.51 10.3 11.3 0.384 2.24 0.621 4.45 0.789 6.72 0.158 2.28 0.158 2.28 0.718 4.44 0.613 3.53 0.617 6.98 0.591 10.5-0.00141 0.725-0.00283 1.45-0.00429 2.2-0.00557 2.3-0.0181 4.6-0.0309 6.91-0.00502 1.57-0.00958 3.13-0.0137 4.7-0.0101 3.83-0.0297 7.66-0.0488 11.5h-18c-1.19-3.57-1.19-6.87-1.25-10.6-0.0329-1.52-0.0661-3.04-0.0996-4.56-0.0474-2.39-0.0919-4.79-0.131-7.18-0.0398-2.31-0.0913-4.63-0.144-6.94-0.00841-0.714-0.0168-1.43-0.0255-2.16-0.0906-3.65-0.186-6.55-2.35-9.56-3.31-3.08-5.62-3.37-10.1-3.37-1.23-0.00623-2.46-0.0125-3.72-0.0189-1.34 0.00869-2.67 0.018-4.01 0.0279-1.37 5.19e-4 -2.75 1.94e-8 -4.12-0.00151-2.88 8.96e-5 -5.76 0.0105-8.63 0.0286-3.69 0.0227-7.37 0.0232-11.1 0.0165-2.84-0.00334-5.68 0.0033-8.51 0.0131-1.36 0.00384-2.72 5e-3 -4.08 0.00341-1.9-3.72e-4 -3.8 0.0137-5.7 0.0285-1.08 0.00461-2.16 0.00921-3.27 0.014-2.82 0.262-4.46 0.71-6.81 2.26-2.61 4.81-3.58 9.89-2.12 15.2 3.02 4 6.39 5.35 11.1 6.81 4.09 0.56 8.13 0.605 12.3 0.609 1.14 0.0165 2.28 0.0331 3.46 0.0501 3.62 0.0483 7.23 0.0698 10.8 0.0905 2.46 0.0282 4.93 0.0581 7.39 0.0898 6.01 0.0737 12 0.123 18 0.16-0.33 6.27-0.66 12.5-1 19-7.29 0.068-14.6 0.123-21.9 0.155-3.39 0.0156-6.77 0.0367-10.2 0.0709-3.9 0.0365-7.8 0.0534-11.7 0.0667-1.81 0.0232-1.81 0.0232-3.65 0.0469-10.6 0.0021-18.3-2.59-26.6-9.34-2.13-2.41-4-4.66-4-8h-2c-0.53-1.46-1.05-2.91-1.56-4.38-0.29-0.812-0.58-1.62-0.879-2.46-0.559-2.16-0.559-2.16 0.441-4.16h-2c0.979-10.4 3.03-19.9 10-28 2.81-1.94 2.81-1.94 5-3 0.33-0.66 0.66-1.32 1-2 9.37-4.18 18.8-4.15 28.9-4.13zm67.1 19.1 1 2zm-15 11 1 2zm-78 5 1 3z" fill="#009DEB"/>
<path transform="translate(319 1163)" d="m0 0c1.12 4.58e-4 2.23 9.16e-4 3.38 0.00139 2.34 3e-3 4.68 0.0108 7.02 0.0233 3.56 0.0183 7.12 0.0205 10.7 0.0203 2.29 0.00491 4.57 0.0107 6.86 0.0176 1.58 0.00167 1.58 0.00167 3.19 0.00337 9.12 0.0581 17.2 0.621 25.6 4.16v2c0.557 0.227 1.11 0.454 1.69 0.688 4.6 2.61 8.13 6.51 10.3 11.3 0.385 2.21 0.621 4.39 0.789 6.62 0.177 2.44 0.177 2.44 0.718 5.05 0.546 3.69 0.605 7.19 0.591 10.9-0.00141 0.702-0.00283 1.4-0.00429 2.13-0.00556 2.22-0.0181 4.44-0.0309 6.66-0.00502 1.51-0.00958 3.03-0.0137 4.54-0.0101 3.69-0.0297 7.39-0.0488 11.1h-18c-1.18-3.53-1.05-6.64-0.957-10.3 0.0224-1.47 0.0439-2.93 0.0645-4.4 0.037-2.3 0.08-4.61 0.139-6.91 0.0548-2.23 0.0837-4.46 0.109-6.69 0.0238-0.681 0.0476-1.36 0.0721-2.07 0.0272-5.01-1.28-7.79-4.43-11.6-3.48-2.32-4.85-2.25-8.97-2.26-1.23-0.0063-2.46-0.0126-3.72-0.0191-1.34 0.00358-2.68 0.00768-4.02 0.0123-1.38-0.00135-2.75-0.00329-4.13-0.0058-2.88-0.00295-5.77 0.00134-8.65 0.0107-3.69 0.0114-7.39 0.00484-11.1-0.00714-2.84-0.00724-5.68-0.00492-8.53 2.56e-4 -1.36 0.00133-2.72-2.97e-4 -4.08-0.00496-1.91-0.00509-3.81 0.00405-5.72 0.0138-1.08 0.00159-2.17 0.00318-3.28 0.00482-2.82 0.255-4.47 0.691-6.81 2.25-1.13 2.22-1.13 2.22-1.75 4.81-0.242 0.852-0.485 1.7-0.734 2.58-0.528 2.67-0.796 4.9-0.516 7.61 6.09 6.23 12.1 7.22 20.6 7.38 1.11 0.0116 2.21 0.0231 3.35 0.035 1.15 0.0194 2.29 0.0387 3.47 0.0587 3.65 0.0596 7.29 0.106 10.9 0.152 2.48 0.0382 4.96 0.0772 7.43 0.117 6.06 0.0959 12.1 0.18 18.2 0.258-0.33 6.27-0.66 12.5-1 19-7.29 0.068-14.6 0.123-21.9 0.155-3.39 0.0156-6.77 0.0367-10.2 0.0709-3.9 0.0365-7.8 0.0534-11.7 0.0667-1.81 0.0232-1.81 0.0232-3.65 0.0469-10.7 0.00213-18.1-2.73-26.6-9.34-4-4.2-4-4.2-4-8h-2v-4h-2c-0.144-1.09-0.289-2.19-0.438-3.31-0.445-3.62-0.445-3.62-1.56-6.69 1.69-10.4 4.1-20 12.4-27 9.93-7 21-7.29 32.8-7.21zm66.8 19.2 1 2zm-110 21 1 2z" fill="#009DEB"/>
<path transform="translate(803,1163)" d="m0 0c3.27-0.0871 6.54-0.14 9.81-0.188 0.929-0.0251 1.86-0.0503 2.81-0.0762 1.34-0.0145 1.34-0.0145 2.71-0.0293 1.23-0.0236 1.23-0.0236 2.49-0.0476 2.69 0.421 3.5 1.25 5.18 3.34 0.797 1.28 1.54 2.6 2.25 3.94 2.64 4.92 5.5 9.69 8.39 14.5 1.36 2.6 1.36 2.6 1.36 5.6h2c2.84 4.89 5.45 9.52 7 15h2v2c4.77 1.23 9.42 1.11 14.3 1.06 0.836-0.00451 1.67-0.00902 2.53-0.0137 2.05-0.0117 4.1-0.0297 6.15-0.0488 0.246-0.688 0.492-1.38 0.746-2.09 1.46-3.4 3.33-6.43 5.32-9.54 2.87-4.48 2.87-4.48 4.94-9.38h2c0.33-1.65 0.66-3.3 1-5h2c0.103-0.722 0.206-1.44 0.312-2.19 0.755-3.09 1.84-5.23 3.69-7.81h2c0.33-1.65 0.66-3.3 1-5h2v-3c2.35-1.17 3.74-1.12 6.35-1.1 1.28 0.00483 1.28 0.00483 2.58 0.00977 0.889 0.00838 1.78 0.0168 2.7 0.0254 0.897 0.00451 1.79 0.00902 2.72 0.0137 2.22 0.0118 4.44 0.0283 6.66 0.0488 0 4.67-1.07 6.82-3 11h-2c-0.227 0.804-0.454 1.61-0.688 2.44-1.65 4.48-3.92 8.45-6.31 12.6h-2c-0.098 0.717-0.196 1.43-0.297 2.17-0.805 3.24-2.09 5.32-3.95 8.08-2.13 3.25-4.21 6.46-6.06 9.88-2.42 4.45-4.99 8.82-7.56 13.2-0.654 1.11-0.654 1.11-1.32 2.24-0.865 1.47-1.73 2.93-2.59 4.4-4.5 7.63-8.94 15.3-13.2 23.1h-19c-0.33-0.99-0.66-1.98-1-3-0.495 1.48-0.495 1.48-1 3l-1-2c0.988-2.05 0.988-2.05 2.53-4.54 0.545-0.891 1.09-1.78 1.65-2.7 0.871-1.4 0.871-1.4 1.76-2.83 1.14-1.84 2.27-3.69 3.4-5.54 0.509-0.82 1.02-1.64 1.54-2.48 1.2-1.69 1.2-1.69 1.12-2.92-0.713-0.0374-1.43-0.0748-2.16-0.113-5.97-0.41-10.5-1.17-15.8-3.89-0.742-0.309-1.49-0.619-2.25-0.938-2.23-1.35-3.38-2.87-4.75-5.06v-2h-2c-0.495-2.47-0.495-2.47-1-5h-2c-0.672-1.29-1.34-2.58-2-3.88-0.371-0.719-0.742-1.44-1.12-2.18-0.875-1.95-0.875-1.95-0.875-3.95h-2c-0.495-2.47-0.495-2.47-1-5h-2c-0.257-0.548-0.513-1.1-0.777-1.66-3.33-6.89-7.17-13.4-11.1-19.9-0.355-0.586-0.71-1.17-1.08-1.78-0.901-1.46-1.84-2.9-2.78-4.34-1.23-2.3-1.23-2.3-1.23-6.3z" fill="#009AE7"/>
<path transform="translate(1260 1163)" d="m0 0c0.934-0.00333 1.87-0.00666 2.83-0.0101 1.96-0.00503 3.92-0.00741 5.88-0.00725 2.97-0.00219 5.93-0.0204 8.9-0.0393 23.1-0.0701 23.1-0.0701 33.2 4.22v2c1.65 0.66 3.3 1.32 5 2v2c0.99 0.33 1.98 0.66 3 1 6.62 7.09 6.54 15.3 6.29 24.3-0.116 2.95-0.263 5.9-0.412 8.85-0.0784 2.02-0.154 4.04-0.227 6.06-0.183 4.92-0.405 9.83-0.648 14.7h-17c-1.19-3.57-1.19-6.87-1.25-10.6-0.0329-1.52-0.0661-3.04-0.0996-4.56-0.0474-2.39-0.0919-4.79-0.131-7.18-0.0398-2.31-0.0913-4.63-0.144-6.94-0.00841-0.714-0.0168-1.43-0.0255-2.16-0.0906-3.65-0.186-6.55-2.35-9.56-3.15-2.87-5.21-3.38-9.44-3.37-1.09-0.00623-2.18-0.0125-3.3-0.0189-1.17 0.00921-2.34 0.0184-3.55 0.0279-1.21-4.99e-4 -2.41-9.97e-4 -3.65-0.00151-2.55 0.00234-5.1 0.0121-7.65 0.0286-3.9 0.0236-7.81 0.0206-11.7 0.0139-2.48 0.00558-4.95 0.0127-7.43 0.0215-1.75-0.00137-1.75-0.00137-3.55-0.00276-1.09 0.00953-2.18 0.0191-3.3 0.0289-1.43 0.00691-1.43 0.00691-2.9 0.014-2.67 0.274-4.3 0.807-6.54 2.26-1.23 2.23-1.23 2.23-2 5-0.34 1.06-0.679 2.13-1.03 3.22-0.977 3.8-1.28 7.11-1.39 11-0.0194 0.656-0.0387 1.31-0.0587 1.99-0.0591 2.07-0.106 4.14-0.152 6.2-0.0382 1.41-0.0773 2.83-0.117 4.24-0.0969 3.44-0.177 6.88-0.258 10.3h-17c-1.79-5.37-1.19-11.2-1.19-16.8-0.00217-2.26-0.0203-4.53-0.0393-6.79-0.0521-12.8 0.937-22.7 10.2-32.4 9.81-9.06 20.5-9.14 33.3-9.15zm61.8 21.2 1 2zm1 2 1 3zm-17 7 1 2z" fill="#009DEB"/>
<path transform="translate(325,527)" d="m0 0h4v3h2v-3h3v5h3v9h-2v7h3c0.33 2.31 0.66 4.62 1 7h5v3h17c-0.0326 2.41-0.0651 4.82-0.0977 7.23 0.0333 2.79 0.0333 2.79 0.598 5.58 0.482 3.08 0.614 5.92 0.598 9.03-0.00322 1.06-0.00645 2.13-0.00977 3.22-0.0126 1.64-0.0126 1.64-0.0254 3.32-0.00451 1.12-0.00902 2.24-0.0137 3.39-0.0117 2.75-0.0297 5.49-0.0488 8.24h17c0.33 1.32 0.66 2.64 1 4h5v9h-6v6h-4l-1 4v-4h-4l-1 4v-4h-4v4h-3v-4h-2v4h-3c-0.33-1.65-0.66-3.3-1-5h-9v-4h6c-0.33-5.28-0.66-10.6-1-16-3.3-0.33-6.6-0.66-10-1v-2c0.959-0.186 0.959-0.186 1.94-0.375 1.02-0.309 1.02-0.309 2.06-0.625 0.33-0.66 0.66-1.32 1-2h-5v-2c0.639-0.103 1.28-0.206 1.94-0.312 0.681-0.227 1.36-0.454 2.06-0.688 0.33-0.99 0.66-1.98 1-3 2.06-0.688 2.06-0.688 4-1-0.165-0.619-0.33-1.24-0.5-1.88-0.581-2.47-0.5-4.57-0.5-7.12 0.66-0.33 1.32-0.66 2-1v-6h-7c-0.33 0.66-0.66 1.32-1 2v-2h-4c-0.33 0.66-0.66 1.32-1 2v-2h-7v2c-4.45 0.495-4.45 0.495-9 1v4h4v-2h12c0.33 0.66 0.66 1.32 1 2 3.03 0.658 3.03 0.658 6 1v11h-8c0.33 2.97 0.66 5.94 1 9 1.65 0.33 3.3 0.66 5 1 2.62 6.88 2.18 13.7 2 21h10v4h-9v-3h-5v-7c-0.33 1.98-0.66 3.96-1 6l-6.15 0.586c-0.915 0.205-0.915 0.205-1.85 0.414-0.33 0.66-0.66 1.32-1 2h7c-0.33 0.99-0.66 1.98-1 3h-6c0.165 1.07 0.33 2.14 0.5 3.25 0.5 3.75 0.5 3.75 0.5 7.75h-2v-2h-2c-0.495 0.99-0.495 0.99-1 2h-2v-2h-2c-1.76-3.09-2-4.23-2-8h-2c-0.869-5-1.01-9.6-0.742-14.7-0.0436-2.42-0.0436-2.42-1.79-4.09-2.31-3.53-1.54-6.92-1.16-11 0.0612-0.793 0.122-1.59 0.186-2.4 0.153-1.95 0.325-3.9 0.502-5.85h2c-0.0206-1.05-0.0412-2.1-0.0625-3.19 0.0515-3.14 0.328-5.78 1.06-8.81h2v-5c-1.98 0.495-1.98 0.495-4 1v5h-1c-2.74-15.4-2.74-15.4 1-21v2h4l1-2h3c-0.142-1.44-0.289-2.88-0.438-4.31-0.0812-0.801-0.162-1.6-0.246-2.43-0.269-2.42-0.269-2.42-1.32-5.26h-4v-12c1.65-0.33 3.3-0.66 5-1v-2z" fill="#009BEC"/>
<path transform="translate(959,99)" d="m0 0c0.495 0.99 0.495 0.99 1 2 2.02 1.13 2.02 1.13 4 2v7c1.98 0.66 3.96 1.32 6 2 0.125 5.75 0.125 5.75-1 8 1.65-0.66 3.3-1.32 5-2v2c1.48-0.449 2.96-0.91 4.44-1.38 0.824-0.255 1.65-0.51 2.5-0.773 2.24-0.66 2.24-0.66 3.07-2.85v2c1.65 0.66 3.3 1.32 5 2v1c-2.97 0.33-5.94 0.66-9 1v2c-1.6 0.196-3.21 0.381-4.81 0.562-0.893 0.104-1.79 0.209-2.71 0.316-2.48 0.121-2.48 0.121-5.48-0.879v3h-2c-0.495 1.48-0.495 1.48-1 3 0.99 0.66 1.98 1.32 3 2h-2c-0.33 0.99-0.66 1.98-1 3 8.6 3.75 16.8 3.28 26 3 0.73 3.42 1.1 6.5 1 10 1.49 0.495 1.49 0.495 3 1v3h3v-3h2v3h3c0.33-0.99 0.66-1.98 1-3v3h4v2h2v3h-2v6h-7c-0.495-2.97-0.495-2.97-1-6-0.33 1.98-0.66 3.96-1 6h-3c-0.495-2.97-0.495-2.97-1-6-0.33 1.98-0.66 3.96-1 6h-15v-4c-1.49-0.495-1.49-0.495-3-1 0.33-1.98 0.66-3.96 1-6h5c-0.33-0.66-0.66-1.32-1-2-2.02-0.652-2.02-0.652-4-1v-2h5c-0.33-0.66-0.66-1.32-1-2-3.05-0.47-3.05-0.47-6.56-0.625-3.19-0.186-3.19-0.186-6.44-0.375v19h-5v-20h-10v-3h-3v3h-2v-3h-3v3h-4c-0.33-0.99-0.66-1.98-1-3-0.99-0.33-1.98-0.66-3-1-0.33 1.32-0.66 2.64-1 4-0.33-0.99-0.66-1.98-1-3-0.99-0.33-1.98-0.66-3-1v4h-55v-1h30c0.33-1.32 0.66-2.64 1-4v4h15c0.33-1.98 0.66-3.96 1-6 0.33 0.66 0.66 1.32 1 2h11v-2c6.43-0.495 6.43-0.495 13-1v-6c0.495 1.49 0.495 1.49 1 3h2v3h2v-3h3v3h2v-3c0.99-0.33 1.98-0.66 3-1v-2c-1.49-0.495-1.49-0.495-3-1 0.99-0.66 1.98-1.32 3-2v-2c-1.23 0.0174-1.23 0.0174-2.48 0.0352-1.08 0.00902-2.16 0.018-3.27 0.0273-1.07 0.0116-2.13 0.0232-3.23 0.0352-2.55-0.0826-4.59-0.351-7.02-1.1-0.33 1.32-0.66 2.64-1 4-0.495-1.48-0.495-1.48-1-3-1.49-0.495-1.49-0.495-3-1-0.33 1.32-0.66 2.64-1 4h-17c-0.495-1.48-0.495-1.48-1-3-0.598 0.165-1.2 0.33-1.81 0.5-2.19 0.5-2.19 0.5-5.19 0.5-0.639 0.0116-1.28 0.0232-1.94 0.0352-0.681 0.00902-1.36 0.018-2.06 0.0273-1.02 0.0174-1.02 0.0174-2.06 0.0352-1.94-0.0977-1.94-0.0977-4.94-1.1v2h-2v-2c-2.64-0.33-5.28-0.66-8-1v-3h-6c1.32-0.33 2.64-0.66 4-1v-3c6.62-1.12 6.62-1.12 10 0 0.66-0.33 1.32-0.66 2-1 0.99 0.33 1.98 0.66 3 1 1.34-0.324 2.67-0.657 4-1 0.66 0.33 1.32 0.66 2 1 0.99-0.33 1.98-0.66 3-1 0.66 0.99 1.32 1.98 2 3h-2v3h14v-3h-10l-1-2c0.904-0.0606 1.81-0.121 2.74-0.184 1.77-0.126 1.77-0.126 3.57-0.254 1.76-0.122 1.76-0.122 3.55-0.246 3.16-0.203 3.16-0.203 6.14-1.32 0.33-0.66 0.66-1.32 1-2 3.06-0.625 3.06-0.625 6-1v-6h10c0.33-0.66 0.66-1.32 1-2h6c0.33-0.99 0.66-1.98 1-3z" fill="#009DEC"/>
<path transform="translate(484,1143)" d="m0 0h19c-0.33 28-0.66 56.1-1 85h-18c-1.18-3.55-1.13-6.37-1.13-10.1-0.00175-0.721-0.0035-1.44-0.00531-2.18-0.0044-2.38-0.00148-4.77 0.00189-7.15-6.74e-4 -1.66-0.00164-3.32-0.0029-4.98-0.00148-3.48 6.71e-4 -6.97 0.00534-10.5 0.00568-4.45 0.00243-8.91-0.00357-13.4-0.00363-3.43-0.00246-6.86 1.28e-4 -10.3 6.65e-4 -1.64-1.43e-4 -3.28-0.00248-4.92-0.00256-2.3 0.00136-4.6 0.0069-6.91 7.96e-4 -1.31 0.00159-2.62 0.00241-3.96 0.127-3.67 0.127-3.67 1.13-10.7z" fill="#019EEC"/>
<path transform="translate(667,114)" d="m0 0c1.98 0.33 3.96 0.66 6 1 0.495 2.47 0.495 2.47 1 5 12.4 0.896 24.6 1.12 37 1 0.33-0.66 0.66-1.32 1-2v2h3v-2h2v2h3c0.33-0.66 0.66-1.32 1-2v2c5.28 0.66 10.6 1.32 16 2-0.66 0.33-1.32 0.66-2 1v2h-3v4h-2c-0.495-1.49-0.495-1.49-1-3h-55v3h4v2h-4v3h4v6h3v5c-5.12 0.852-10.1 1.12-15.3 1.06-0.762-0.00379-1.52-0.00757-2.31-0.0115-2.41-0.0121-4.82-0.0308-7.23-0.051-3.19-0.0265-6.39-0.0465-9.58-0.0625-1.1-0.0124-1.1-0.0124-2.22-0.0251-3.82-0.0885-3.82-0.0885-7.38 1.09v-2h-16c-0.33 0.66-0.66 1.32-1 2v-2h-9c1.32-0.33 2.64-0.66 4-1v-6h3v-2c6.75 0.875 6.75 0.875 9 2v3h2c0.33-1.32 0.66-2.64 1-4 0.66 0.33 1.32 0.66 2 1v3h2c0.33-2.31 0.66-4.62 1-7h2v-3h2v3h11v-4c-0.66-0.33-1.32-0.66-2-1h2v-4h-7c0.66-1.65 1.32-3.3 2-5h2v-2c0.869 0.0116 1.74 0.0232 2.63 0.0352 1.15 0.00902 2.3 0.018 3.49 0.0273 1.71 0.0174 1.71 0.0174 3.45 0.0352 3.24-0.0923 6.25-0.484 9.43-1.1 0.33-1.32 0.66-2.64 1-4z" fill="#009DEC"/>
<path transform="translate(1075 138)" d="m0 0c2.69 1.38 2.69 1.38 4.94 3.75 3.09 2.95 5.8 4.09 9.76 5.54 2.45 1.34 2.82 2.62 3.99 5.09 0.99 0.33 1.98 0.66 3 1 1.33 1.33 2.67 2.67 4 4h2v3c0.587 0.267 1.17 0.534 1.78 0.809 2.92 1.56 5.11 3.63 7.54 5.85 1.76 1.55 1.76 1.55 4.68 2.34 0.454 0.619 0.908 1.24 1.38 1.88 1.5 2.25 1.5 2.25 3.88 3.38 3.23 2.06 5.22 4.46 7.61 7.42 1.81 1.97 3.6 3.63 5.62 5.36 5.19 4.48 10 9.3 14.9 14.1 1.56 1.56 3.13 3.11 4.71 4.67 5.68 5.65 11 11.4 15.9 17.7 2.07 2.58 4.25 5.02 6.48 7.46 8.14 8.97 15.4 18.5 22.3 28.3 1.69 2.39 3.43 4.74 5.17 7.09 7.1 9.76 13.7 19.8 19.8 30.2 2.21 3.74 4.5 7.4 6.88 11 2.9 4.52 5.35 9.15 7.7 14 1.22 2.52 2.47 5.02 3.73 7.51 0.364 0.716 0.727 1.43 1.1 2.17 0.715 1.41 1.43 2.82 2.15 4.22 1.58 3.12 2.87 6.02 3.63 9.43-2.44-0.688-2.44-0.688-5-2-0.562-2.19-0.562-2.19-1-5-1.51-3.23-3.21-6.21-5.75-8.75-0.412-0.413-0.825-0.825-1.25-1.25v-3c-1.03-2.8-2.18-4.17-4.38-6.25-4.05-4.24-6.26-8.94-7.62-14.6-0.648-3.22-0.648-3.22-3-4.31-0.66-0.268-1.32-0.536-2-0.812-1.48-2.26-2-4.03-2.5-6.69-0.165-0.763-0.33-1.53-0.5-2.31l-2-1c-0.33 0.66-0.66 1.32-1 2-0.867-1.26-1.72-2.54-2.56-3.81-0.476-0.708-0.951-1.42-1.44-2.14-0.996-2.04-0.996-2.04 0.00391-5.04-1.37-2.68-1.37-2.68-3-5l-2 1-2-1v-3c-1.32-0.66-2.64-1.32-4-2h3c-0.66-1.32-1.32-2.64-2-4-0.66 0.66-1.32 1.32-2 2-4.18-1.92-5.71-3.82-7.38-8.09-0.226-0.629-0.452-1.26-0.686-1.91-1.62-4.43-2.91-7.32-6.94-10-0.33-0.99-0.66-1.98-1-3-1.48-0.495-1.48-0.495-3-1v-2c-0.578-0.227-1.15-0.454-1.75-0.688-2.85-1.66-4.37-3.63-6.25-6.31v-2c-1.48-0.495-1.48-0.495-3-1-0.0825-0.784-0.165-1.57-0.25-2.38-0.478-2.77-0.478-2.77-2.81-3.94-0.639-0.227-1.28-0.454-1.94-0.688v-2c-1.14-0.371-1.14-0.371-2.31-0.75-2.95-1.37-4.05-2.49-5.69-5.25v-2h-2c-0.0206-1.24-0.0412-2.48-0.0625-3.75-0.196-2.22-0.196-2.22-0.938-4.25-2.95-2.11-2.95-2.11-5.16-3.06-2.8-1.42-4.67-3.71-6.84-5.94-1.48-0.495-1.48-0.495-3-1-1.03-1.65-2.03-3.32-3-5l-2-1v-2h-3c-0.66-0.99-1.32-1.98-2-3-3.57-0.736-3.57-0.736-7-1-0.495-2.97-0.495-2.97-1-6h-2v-2h-2v-2h-2c-0.66-0.99-1.32-1.98-2-3-2.06-0.724-2.06-0.724-4-1v-2h-10v-8h-2c-1.36-1.31-2.69-2.65-4-4-0.99-0.66-1.98-1.32-3-2v-2h-3c-0.33-0.66-0.66-1.32-1-2-1.64-1.04-3.31-2.05-5-3 0.33-0.66 0.66-1.32 1-2-0.566-0.326-1.13-0.652-1.71-0.988-0.733-0.437-1.47-0.874-2.22-1.32-0.731-0.429-1.46-0.859-2.21-1.3-1.85-1.39-1.85-1.39-2.85-4.39 2-1 2-1 4.31-0.375z" fill="#009DEA"/>
<path transform="translate(601,166)" d="m0 0h50c0.88 3.52 1 5.48 1 9-16.3 0.495-16.3 0.495-33 1-0.33 1.32-0.66 2.64-1 4h10v1c-4.29 0.66-8.58 1.32-13 2 1.81 1.81 4.61 1.38 7.06 1.56 1.1 0.0838 2.21 0.168 3.35 0.254 0.855 0.0606 1.71 0.121 2.59 0.184v1c-3.3 0.33-6.6 0.66-10 1l1 2h-3c-0.33 1.32-0.66 2.64-1 4v-4h-4c-0.33 1.32-0.66 2.64-1 4v-4h-6v4h-13v-10h-14v-4h-6v-1h5c0.33-1.32 0.66-2.64 1-4h-6v-1h5c0.33-0.99 0.66-1.98 1-3h23c0.33-1.32 0.66-2.64 1-4z" fill="#009BEC"/>
<path transform="translate(631,88)" d="m0 0c-0.33 0.99-0.66 1.98-1 3 0.99 1.48 0.99 1.48 2 3-1.01 0.0619-2.02 0.124-3.06 0.188-4.61 0.621-7.35 2.96-10.9 5.81-0.44-0.481-0.879-0.962-1.33-1.46-2.12-1.96-3.85-2.16-6.67-2.54-0.33 0.66-0.66 1.32-1 2 1.32 0.33 2.64 0.66 4 1-0.99 0.33-1.98 0.66-3 1-0.33 0.66-0.66 1.32-1 2h-3c-0.33 0.66-0.66 1.32-1 2-1.98-0.33-3.96-0.66-6-1 0.495 1.48 0.495 1.48 1 3h-3c-0.33 1.32-0.66 2.64-1 4h-4v2c-6.39 4.22-6.39 4.22-11 3.6-2.72-0.764-5.37-1.6-8.02-2.6-0.143 0.607-0.286 1.21-0.434 1.84-0.566 2.16-0.566 2.16-1.63 4.72-1.12 2.47-1.12 2.47-0.938 5.44h-6v-2h-6c0.33 1.32 0.66 2.64 1 4-1.44 1.56-1.44 1.56-4 3-3.08 0.0655-6.02-0.235-9-1-0.66-0.66-1.32-1.32-2-2 6.78-4 13.6-7.92 20.5-11.6 1.73-0.953 3.44-1.95 5.14-2.97 2.39-1.42 4.75-2.38 7.34-3.39 0.969-0.495 1.94-0.99 2.94-1.5 3.06-1.5 3.06-1.5 6.38-2.56 2.83-0.636 2.83-0.636 3.69-2.94 1.83-0.895 1.83-0.895 4.25-1.81 0.897-0.345 1.79-0.691 2.72-1.05 1-0.376 2-0.753 3.03-1.14 2.25-0.852 4.5-1.71 6.75-2.56 1.05-0.393 2.09-0.786 3.17-1.19 3.14-1.22 3.14-1.22 6.26-2.89 3.18-1.53 5.33-1.61 8.82-1.36v-2c3.75-1.12 3.75-1.12 6 0zm-50 27c0.33 0.66 0.66 1.32 1 2-0.66-0.33-1.32-0.66-2-1 0.33-0.33 0.66-0.66 1-1z" fill="#008FDA"/>
<path transform="translate(809,103)" d="m0 0v2c0.929-0.0232 1.86-0.0464 2.82-0.0703 11.3-0.166 11.3-0.166 15.2 1.13 3.42 1.07 5.55 0.778 9-0.0625v3c2.97 0.495 2.97 0.495 6 1v1h-22c-0.33 0.99-0.66 1.98-1 3v-3h-12v-3h-4c-0.33 0.66-0.66 1.32-1 2v-2h-4v2c-1.98 0.33-3.96 0.66-6 1-0.495-1.48-0.495-1.48-1-3-0.66 0.99-1.32 1.98-2 3h-2c-0.495-1.48-0.495-1.48-1-3-0.66 0.99-1.32 1.98-2 3-5.45-0.495-5.45-0.495-11-1v-2h-21v2h-5v-2h-11v2h-3v-3h-6v-1c4.48-0.314 8.96-0.608 13.4-0.848 0.756-0.0413 1.51-0.0827 2.29-0.125 3.04-0.0365 5.97 0.308 8.97 0.785 4.42 0.362 8.84-0.234 13.2-0.656 3.04-0.156 3.04-0.156 6.04 0.844 0.33-0.99 0.66-1.98 1-3v2h13v-2c2.69-0.196 5.37-0.382 8.06-0.562 0.752-0.0561 1.5-0.112 2.28-0.17 4.74-0.308 8.98-0.106 13.7 0.732z" fill="#019EEC"/>
<path transform="translate(339 566)" d="m0 0c4.31 0.442 8.48 0.659 12.8 0.562 0.33 2.31 0.66 4.62 1 7h-3c0.776 3.07 0.776 3.07 3 5h-3c0.776 3.07 0.776 3.07 3 5h-6c-0.33 1.32-0.66 2.64-1 4h-4v2h5c-0.33 0.99-0.66 1.98-1 3h-4v2c1.09-0.0206 2.19-0.0412 3.31-0.0625 3.69 0.0625 3.69 0.0625 6.69 1.06 0.853 3.67 1.11 7.04 1.06 10.8-0.00902 0.976-0.018 1.95-0.0273 2.96-0.0116 0.736-0.0232 1.47-0.0352 2.23h-6v4h4c0.33-0.99 0.66-1.98 1-3v3c2.48-0.495 2.48-0.495 5-1v5c-0.33-0.99-0.66-1.98-1-3h-10c-0.0606-0.929-0.121-1.86-0.184-2.82-0.612-9.13-0.612-9.13-1.82-18.2-0.804-0.124-1.61-0.247-2.44-0.375-0.846-0.206-1.69-0.413-2.56-0.625-1.48-2.96-1.06-5.74-1-9h8v-11h-6c-0.33-0.99-0.66-1.98-1-3h-12v2h-4v-4c2.96-1.48 5.74-1.06 9-1v-2c2.64-1.32 4.26-0.889 7.19-0.562z" fill="#019EEC"/>
<path transform="translate(396,758)" d="m0 0c4.34-0.0251 8.68-0.043 13-0.0549 1.47-0.00497 2.94-0.0118 4.41-0.0205 8.91-0.0516 17.7 0.132 26.6 1.08v3c-5.94 0.495-5.94 0.495-12 1 3.96 0.33 7.92 0.66 12 1v3h-21v6h-2v-3h-3v3h-2v-3h-10v-3h-4v-3c-0.66-0.33-1.32-0.66-2-1 0.66-0.33 1.32-0.66 2-1v-3c-0.66-0.33-1.32-0.66-2-1z" fill="#009BEC"/>
<path transform="translate(1052 1163)" d="m0 0c1.18-9.57e-4 2.37-0.00191 3.59-0.0029 2.49-6.78e-4 4.99 0.00115 7.48 0.00534 3.79 0.00535 7.59 4.31e-5 11.4-0.00635 2.43 6.61e-4 4.87 0.00194 7.3 0.00391 1.12-0.00202 2.25-0.00405 3.4-0.00613 13.5 0.0398 23 0.816 33.3 10.1 0.557 0.474 1.11 0.949 1.69 1.44 1.97 2.35 3.16 4.73 4.31 7.56-0.422 2.19-0.422 2.19-1 4-0.402-0.744-0.402-0.744-0.812-1.5-3.91-6.78-9.43-13.2-17-16-11.8-2.61-24.9-1.64-36.9-1.61-2.99 0.00538-5.99 1.15e-5 -8.98-0.00635-18-0.839-18-0.839-34.9 4.14-5.42 2.99-5.42 2.99-8.44 4-1.01 1.77-1.01 1.77-2 4-1.32 2.01-2.65 4.01-4 6-1-3-1-3 0.125-5.94 1.98-3.24 3.83-4.84 6.88-7.06 0.577-0.66 1.15-1.32 1.75-2 9.04-8.04 21.4-7.15 32.8-7.13z" fill="#000002"/>
<path transform="translate(402,824)" d="m0 0h2c0.66 0.66 1.32 1.32 2 2 0.33-0.66 0.66-1.32 1-2 2 0 2 0 3.62 1.5 0.454 0.495 0.908 0.99 1.38 1.5 0.66-0.33 1.32-0.66 2-1v2h4l1-2v2h3v3h-3v5h3c0.103 0.639 0.206 1.28 0.312 1.94 0.227 0.681 0.454 1.36 0.688 2.06 0.99 0.33 1.98 0.66 3 1 0.66 3.3 1.32 6.6 2 10-1.65-0.66-3.3-1.32-5-2 1.88 1.94 1.88 1.94 3.56 3.31 1.83 2.14 2.07 3.94 2.44 6.69-0.619-0.186-1.24-0.371-1.88-0.562-2.17-0.674-2.17-0.674-4.12 0.562-2.41-3.51-3.37-5.73-3-10-2.65-1.08-5.28-2.09-8-3v-3h-2c-0.231-0.626-0.461-1.25-0.699-1.9-1.92-5.22-1.92-5.22-6.05-8.66-0.743-0.144-1.49-0.289-2.25-0.438 0.33-0.99 0.66-1.98 1-3h2c0.66 0.66 1.32 1.32 2 2v-2c-2.48-0.99-2.48-0.99-5-2 0.33-0.99 0.66-1.98 1-3z" fill="#009BEC"/>
<path transform="translate(769,129)" d="m0 0h74c-1.32 0.33-2.64 0.66-4 1v4h-74c0.99-0.33 1.98-0.66 3-1 0.33-1.32 0.66-2.64 1-4z" fill="#019EEC"/>
<path transform="translate(508,553)" d="m0 0h3c0.33 0.813 0.33 0.813 0.667 1.64 4.97 12.1 10.4 23.7 17 35.1 1.41 2.43 2.81 4.87 4.2 7.32 0.96 1.68 1.92 3.36 2.88 5.04 0.436 0.761 0.871 1.52 1.32 2.31 2.25 3.88 4.59 7.65 7.11 11.4 2.09 3.1 3.85 6.07 5.2 9.59 0.317 0.801 0.634 1.6 0.961 2.43 0.664 2.26 0.664 2.26 0.664 6.26-3-1-3-1-4.69-3.94-1.31-3.06-1.31-3.06-1.31-5.06-0.99-0.33-1.98-0.66-3-1-0.758-1.94-1.51-3.89-2.18-5.87-1.17-3.02-2.98-5.49-4.82-8.13-0.33-0.99-0.66-1.98-1-3h-2c-0.387-0.724-0.773-1.45-1.17-2.2-2.75-5.1-5.56-10-8.83-14.8-2.83-4.55-4.7-8.76-6.28-13.9-0.728-2.33-0.728-2.33-2.35-5.12-1.81-3.95-2.1-7.7-2.38-12h-3v-6z" fill="#009DEC"/>
<path transform="translate(640 1163)" d="m0 0c1.12-9.57e-4 2.24-0.00191 3.39-0.0029 2.36-6.77e-4 4.71 0.00115 7.07 0.00534 3.59 0.00535 7.18 3.95e-5 10.8-0.00635 2.3 6.61e-4 4.6 0.00194 6.9 0.00391 1.06-0.00202 2.13-0.00405 3.22-0.00613 9.15 0.0285 17.2 0.582 25.7 4.14v2c0.557 0.227 1.11 0.454 1.69 0.688 4.62 2.62 8.05 6.53 10.3 11.3-0.495 1.48-0.495 1.48-1 3-0.352-0.519-0.704-1.04-1.07-1.57-5.23-7.39-11.1-12.2-19.9-14.4-10.3-1.38-20.9-1.15-31.3-1.13-2.79 0.00537-5.59 2.05e-5 -8.38-0.00635-25.3-0.0479-25.3-0.0479-46.3 13.1 1.4-4.46 3.6-6.85 7-10 0.473-0.51 0.946-1.02 1.43-1.55 7.52-6.98 21-5.6 30.5-5.59z" fill="#000002"/>
<path transform="translate(319 1163)" d="m0 0c1.12 4.58e-4 2.23 9.16e-4 3.38 0.00139 2.34 3e-3 4.68 0.0108 7.02 0.0233 3.56 0.0183 7.12 0.0205 10.7 0.0203 2.29 0.00491 4.57 0.0107 6.86 0.0176 1.58 0.00167 1.58 0.00167 3.19 0.00337 9.12 0.0581 17.2 0.621 25.6 4.16v2c0.557 0.227 1.11 0.454 1.69 0.688 4.62 2.62 8.05 6.53 10.3 11.3-0.495 1.48-0.495 1.48-1 3-0.329-0.508-0.657-1.02-0.996-1.54-4.88-7.06-10.9-11.6-19-14.5-10.9-1.6-22.2-1.19-33.1-1.19-2.92-0.0022-5.84-0.0204-8.76-0.0393-20.1-0.583-20.1-0.583-38.1 7.22-2.53 2.53-4.77 5.21-7 8-0.66 0.66-1.32 1.32-2 2 1.82-8.4 6.59-12.9 13.6-17.6 8.69-3.69 18.3-3.74 27.6-3.68z" fill="#000002"/>
<path transform="translate(1025,175)" d="m0 0h2v2h10v-2c6.87-0.264 13.3 0.742 20 2v-2c1.07 0.108 1.07 0.108 2.16 0.219 6.47 0.637 6.47 0.637 13 0.781h2.88c0.495 0.495 0.495 0.495 1 1 1.68 0.233 3.37 0.413 5.06 0.562 1.38 0.126 1.38 0.126 2.79 0.254 0.71 0.0606 1.42 0.121 2.15 0.184-3.79 2.13-6.66 2.17-11 2v3c-0.857-0.0838-1.71-0.168-2.6-0.254-6.96-0.671-6.96-0.671-13.9-0.246-6.38 0.912-14 1.14-19.5-2.5v2c-1.65-0.66-3.3-1.32-5-2v2h-18c-0.33-1.32-0.66-2.64-1-4 3.3-0.33 6.6-0.66 10-1v-2z" fill="#019EEC"/>
<path transform="translate(405,308)" d="m0 0v2h8v2h4c0.33-0.66 0.66-1.32 1-2v2h10c0.33-0.66 0.66-1.32 1-2 5.94 0.33 11.9 0.66 18 1v3c-11.2 0.33-22.4 0.66-34 1v2h4c0.33-0.66 0.66-1.32 1-2v2h10c0.33-0.66 0.66-1.32 1-2 5.94 0.33 11.9 0.66 18 1v3c-7.23 0.0253-14.5 0.0428-21.7 0.0549-2.46 0.00504-4.92 0.0119-7.38 0.0205-3.53 0.0121-7.06 0.0178-10.6 0.0222-1.11 0.00516-2.21 0.0103-3.35 0.0156-1.02 7.55e-5 -2.04 1.51e-4 -3.09 2.29e-4 -0.902 0.00222-1.8 0.00444-2.73 0.00673-2.18-0.12-2.18-0.12-4.18-1.12 0.186-0.577 0.371-1.15 0.562-1.75 0.478-2.46 0.195-3.89-0.562-6.25 3.63-2.33 6.77-2.16 11-2z" fill="#009BEC"/>
<path transform="translate(1260 1163)" d="m0 0c0.934-0.00333 1.87-0.00666 2.83-0.0101 1.96-0.00503 3.92-0.00741 5.88-0.00725 2.97-0.00219 5.93-0.0204 8.9-0.0393 23.1-0.0701 23.1-0.0701 33.2 4.22v2c1.65 0.66 3.3 1.32 5 2v2c0.99 0.33 1.98 0.66 3 1 1.64 2.36 1.64 2.36 3.25 5.31 0.541 0.966 1.08 1.93 1.64 2.93 1.16 2.9 1.27 3.93 0.109 6.76-0.454-1.01-0.454-1.01-0.918-2.05-2.4-5.12-4.24-8.77-9.08-12-0.476-0.483-0.951-0.967-1.44-1.46-9.34-9.2-26.2-6.7-38.4-6.67-2.2 0.00537-4.39 7.25e-6 -6.59-0.00635-21.5-0.714-21.5-0.714-40.1 8.47-1.93 2.16-3.75 4.34-5.47 6.67-0.33-0.99-0.66-1.98-1-3 5.72-7.12 11.6-14 21.1-15.3 6.04-0.613 12-0.865 18.1-0.873z" fill="#000002"/>
<path transform="translate(913 631)" d="m0 0c0.986 0.00322 1.97 0.00645 2.99 0.00977 1.03 0.00838 2.07 0.0168 3.13 0.0254 1.56 0.00677 1.56 0.00677 3.15 0.0137 2.57 0.0118 5.15 0.0283 7.72 0.0488v2h-3v2c-0.784 0.124-1.57 0.247-2.38 0.375-2.77 0.416-2.77 0.416-4.62 2.62-2.12-0.375-2.12-0.375-4-1v5h-2v6c-5.49 1.87-10.2 2.24-16 2 1.32-0.66 2.64-1.32 4-2v-12c-2.64-0.33-5.28-0.66-8-1v-3c1.26 0.0174 1.26 0.0174 2.55 0.0352 1.1 0.00902 2.19 0.018 3.32 0.0273 1.64 0.0174 1.64 0.0174 3.3 0.0352 3.5-0.121 6.2-1.22 9.83-1.2z" fill="#019EEC"/>
<path transform="translate(412,778)" d="m0 0h27c0.88 3.52 1 5.48 1 9h-13v3h-3c-0.33 1.32-0.66 2.64-1 4-0.598-0.165-1.2-0.33-1.81-0.5-2.3-0.611-2.3-0.611-5.19-0.5-3.13-2.3-3.93-3.68-4.81-7.5-0.188-3.5-0.188-3.5 0.812-7.5z" fill="#009BEC"/>
<path transform="translate(436 252)" d="m0 0c1.5 0.0135 1.5 0.0135 3.04 0.0273 0.771 0.0116 1.54 0.0232 2.34 0.0352v2c7.59 0.33 15.2 0.66 23 1v3c-10.4 0.495-10.4 0.495-21 1 6.93 0.33 13.9 0.66 21 1v3c-5.09 0.0494-10.2 0.0857-15.3 0.11-1.73 0.0101-3.46 0.0237-5.2 0.041-2.49 0.0242-4.97 0.0356-7.46 0.0444-0.777 0.0103-1.55 0.0206-2.35 0.0313-1.91 4e-4 -3.81-0.104-5.72-0.227l-2-2h2v-4c-0.66-0.33-1.32-0.66-2-1h2v-3c2.64-1.32 4.68-1.1 7.62-1.06z" fill="#009BEC"/>
<path transform="translate(358,622)" d="m0 0c3.94-0.029 7.87-0.0468 11.8-0.0625 1.12-0.00838 2.24-0.0168 3.39-0.0254 1.61-0.00483 1.61-0.00483 3.25-0.00977 1.48-0.00786 1.48-0.00786 3-0.0159 2.54 0.114 2.54 0.114 5.54 1.11v3c-0.99 0.33-1.98 0.66-3 1 0.99 0.33 1.98 0.66 3 1v3h-4v4h-12v-4h-11v-9z" fill="#009BEC"/>
<path transform="translate(402,739)" d="m0 0h24v3h-21c1.77 2.18 1.77 2.18 3.97 2.23 1.18-0.0157 1.18-0.0157 2.38-0.0317 0.851-0.00645 1.7-0.0129 2.58-0.0195 0.889-0.0168 1.78-0.0335 2.7-0.0508 0.897-0.00902 1.79-0.018 2.72-0.0273 2.22-0.0236 4.44-0.0565 6.66-0.0977v3h-21v3h-16c-0.33-0.99-0.66-1.98-1-3-0.66-0.33-1.32-0.66-2-1 3.46-0.495 3.46-0.495 7-1-1.65-0.33-3.3-0.66-5-1v-2c-0.66-0.33-1.32-0.66-2-1h16v-2z" fill="#009BEC"/>
<path transform="translate(815,710)" d="m0 0c0.33 0.66 0.66 1.32 1 2h3v2c-2.64 0.33-5.28 0.66-8 1v3h-4c-0.33 1.65-0.66 3.3-1 5-2.48-0.495-2.48-0.495-5-1v6h-2v2c-6.05 0.977-6.05 0.977-8 1l-2-2h2v-2c1.65-0.66 3.3-1.32 5-2v-2h-5c2-2 2-2 5-3v-2h-11c0.66-0.33 1.32-0.66 2-1 0.325-0.98 0.325-0.98 0.656-1.98 1.34-2.02 1.34-2.02 4.69-2.88 1.38-0.172 2.77-0.32 4.16-0.449 1.08-0.118 1.08-0.118 2.17-0.238 5.54-0.539 10.8-0.427 16.3 0.55v-2z" fill="#019EEC"/>
<path transform="translate(1029,994)" d="m0 0c-0.33 0.66-0.66 1.32-1 2-0.784 0.247-1.57 0.495-2.38 0.75-4.29 1.48-8 3.58-11.9 5.81-2.52 1.35-5.02 2.41-7.68 3.44-1.27 0.578-2.54 1.16-3.81 1.75-6.28 2.81-12.7 5.13-19.2 7.51-5.08 1.88-10.1 3.77-15.1 5.86-3.62 1.46-6.97 2.46-10.9 2.88 1-3 1-3 4-5 2.32-0.705 4.66-1.37 7-2 0.99-0.33 1.98-0.66 3-1v-2c0.545-0.098 1.09-0.196 1.65-0.297 5.03-0.997 9.31-2.5 13.9-4.68 4.32-1.82 8.87-2.9 13.4-4.02v-2c0.808-0.254 1.62-0.508 2.45-0.77 1.07-0.344 2.14-0.688 3.24-1.04 1.06-0.336 2.11-0.673 3.2-1.02 2.98-1.12 5.43-2.48 8.11-4.17 4.17-1.68 7.51-2.21 12-2z" fill="#009DEC"/>
<path transform="translate(373,383)" d="m0 0h2v2h3v-2c2.93 0.391 2.93 0.391 5.86 0.781 2.45 0.287 2.45 0.287 6.14 0.219 0.66 1.98 1.32 3.96 2 6h-2v4c0.66 0.33 1.32 0.66 2 1h-5c-0.33 0.99-0.66 1.98-1 3-7.75 0.125-7.75 0.125-10-1v-2c-0.639-0.309-1.28-0.619-1.94-0.938-2.06-1.06-2.06-1.06-3.06-2.06-0.33 0.66-0.66 1.32-1 2-0.99-0.33-1.98-0.66-3-1 0.33-0.99 0.66-1.98 1-3h5c-0.66-0.99-1.32-1.98-2-3-0.33 0.66-0.66 1.32-1 2-0.99-0.33-1.98-0.66-3-1 0.33-0.99 0.66-1.98 1-3h5v-2z" fill="#009BEC"/>
<path transform="translate(1027,1202)" d="m0 0c2.5 1.38 2.5 1.38 5 3v2c6.49 1.17 12.9 1.14 19.5 1.13 1.19 9.57e-4 2.39 0.00191 3.62 0.0029 2.52 6.79e-4 5.04-0.00115 7.55-0.00534 3.84-0.00535 7.69-4.44e-5 11.5 0.00635 2.45-6.61e-4 4.9-0.00194 7.36-0.00391 1.72 0.00304 1.72 0.00304 3.47 0.00613 5.44-0.0159 10.6-0.171 16-1.14v-2c1.38-1.62 1.38-1.62 3-3h2c-1.36 4.89-3.67 6.53-8 9-3.13 1.04-5.37 1.15-8.66 1.18-1.16 0.0128-2.32 0.0257-3.52 0.0389-1.26 0.00739-2.51 0.0148-3.81 0.0224-1.29 0.00807-2.58 0.0161-3.91 0.0245-2.73 0.015-5.47 0.0249-8.2 0.0324-3.49 0.0111-6.99 0.0455-10.5 0.0852-3.34 0.0325-6.69 0.0369-10 0.0454-1.25 0.0175-2.5 0.035-3.79 0.0531-6.49-0.0162-10.7-0.0292-15.6-4.48-0.619-0.516-1.24-1.03-1.88-1.56-1.12-1.44-1.12-1.44-1.12-4.44z" fill="#000002"/>
<path transform="translate(445,268)" d="m0 0c0.33 0.99 0.66 1.98 1 3h-3v2h2c1.06 2.38 1.06 2.38 2 5-0.33 0.66-0.66 1.32-1 2h-3c-0.66 1.65-1.32 3.3-2 5h-3c-0.33-0.99-0.66-1.98-1-3-4.54-2.64-9.87-2.62-15-3v-2h2v-2c1.13 0.0206 2.27 0.0412 3.44 0.0625 3.38 0.353 3.38 0.353 4.56-1.06h-10v-2h2v-2c1.2 0.0412 2.39 0.0825 3.62 0.125 6.06 0.0213 11.2-2.37 17.4-2.12z" fill="#009BEC"/>
<path transform="translate(743,198)" d="m0 0h25v9h-6c-0.33 0.99-0.66 1.98-1 3v-3h-4c-0.33 0.99-0.66 1.98-1 3v-3h-6v2h-2v-2h-3v2h-2v-11z" fill="#009BEC"/>
<path transform="translate(544,380)" d="m0 0h1c0.665 7.32-1.62 14.5-5.04 21-1.28 2.71-1.78 5.41-2.39 8.34-1.08 4.89-2.37 9.19-4.56 13.7-0.99-0.33-1.98-0.66-3-1v-7c-0.278-1.21-0.278-1.21-0.562-2.44-0.438-2.56-0.438-2.56 0.562-5.56l4 2c0.698-4.69 1.26-9.36 1.72-14.1 0.281-1.92 0.281-1.92 1.28-3.92l-2-1v-4h2c0.33-0.66 0.66-1.32 1-2v2h2c0.33-0.66 0.66-1.32 1-2 0.961-1.36 1.96-2.7 3-4z" fill="#009DEC"/>
<path transform="translate(444,875)" d="m0 0c0.959 0.278 0.959 0.278 1.94 0.562 1.02 0.217 1.02 0.217 2.06 0.438 0.33-0.33 0.66-0.66 1-1 2.01 0.287 4.01 0.619 6 1v3h2v7c2.97 0.495 2.97 0.495 6 1v3h-5c2.12 1.12 2.12 1.12 5 2v3c-1.6 0.0812-3.21 0.139-4.81 0.188-1.34 0.0522-1.34 0.0522-2.71 0.105-2.48-0.293-2.48-0.293-4.24-1.64-1.55-2.07-2.3-4.26-3.24-6.65-0.66-0.33-1.32-0.66-2-1-0.727-1.98-1.4-3.98-2-6h2c-0.66-1.65-1.32-3.3-2-5z" fill="#009BEC"/>
<path transform="translate(615,1198)" d="m0 0c0.99 1.48 0.99 1.48 2 3 4.08 4.65 7.3 6.7 13.5 7.21 3.14 0.12 6.27 0.173 9.42 0.206 1.72 0.029 1.72 0.029 3.47 0.0587 3.65 0.0596 7.29 0.106 10.9 0.152 2.48 0.0382 4.96 0.0772 7.43 0.117 6.06 0.0959 12.1 0.181 18.2 0.258-0.33 1.32-0.66 2.64-1 4-7.42-0.0417-14.8-0.114-22.3-0.208-2.52-0.0282-5.05-0.0494-7.57-0.0635-3.63-0.0215-7.26-0.0681-10.9-0.12-1.12-0.00123-2.25-0.00246-3.4-0.00372-6.52-0.121-10.5-0.781-15.9-4.61-0.928-0.65-0.928-0.65-1.88-1.31-1.79-2.69-1.83-5.53-2.12-8.69z" fill="#000002"/>
<path transform="translate(1259,368)" d="m0 0h2c4.62 11.2 8.61 22.6 12.1 34.2 0.902 2.99 0.902 2.99 2.46 6.38 2.73 6.52 4.09 13.5 5.44 20.4l-2 1c-2-3-2-3-2.94-6.5-0.721-3.41-0.721-3.41-2.57-4.93-1.93-2.02-2.08-3.46-2.5-6.2-0.605-3.49-1.38-6.72-2.56-10.1-1.32-3.75-1.97-7.35-2.44-11.3-0.358-2.28-0.358-2.28-1-4-0.66-0.33-1.32-0.66-2-1-1.72-5.91-2.84-12-4-18z" fill="#009DEC"/>
<path transform="translate(295,1201)" d="m0 0c1.37 1.24 2.73 2.47 4.1 3.71 6.03 4.09 12.9 3.63 19.9 3.7 1.72 0.029 1.72 0.029 3.47 0.0587 3.65 0.0596 7.29 0.106 10.9 0.152 2.48 0.0382 4.96 0.0772 7.43 0.117 6.06 0.0959 12.1 0.181 18.2 0.258-0.33 1.32-0.66 2.64-1 4-7.44-0.0671-14.9-0.157-22.3-0.262-2.53-0.0332-5.06-0.0613-7.59-0.084-3.64-0.0336-7.28-0.0859-10.9-0.142-1.13-0.00639-2.26-0.0128-3.42-0.0194-7-0.131-11.6-0.897-17.1-5.43-1.62-2.06-1.62-2.06-1.62-6.06z" fill="#000002"/>
<path transform="translate(353,538)" d="m0 0h9c0.0271 2.42 0.0469 4.83 0.0625 7.25 0.00838 0.682 0.0168 1.36 0.0254 2.07 0.0164 3.38-0.0316 6.46-1.09 9.68h-3v-4h-2v4h-3c-0.33-1.98-0.66-3.96-1-6h-2c-0.316-5.26 0.334-8.45 3-13z" fill="#009BEC"/>
<path transform="translate(403,289)" d="m0 0c0.577 0.165 1.15 0.33 1.75 0.5 2.52 0.645 2.52 0.645 6.25 0.5v3c2.97 0.495 2.97 0.495 6 1v2c-1.32 0.33-2.64 0.66-4 1 1.32 0.66 2.64 1.32 4 2v2c-12.5 3.63-12.5 3.63-19 2 0.66-1.32 1.32-2.64 2-4l-2-2c0.66-1.32 1.32-2.64 2-4h2c0.33-1.32 0.66-2.64 1-4z" fill="#009BEC"/>
<path transform="translate(568,113)" d="m0 0h3c0.625 2.81 0.625 2.81 1 6-0.99 1.48-0.99 1.48-2 3v3h-6v-2h-6c0.33 1.32 0.66 2.64 1 4-1.44 1.56-1.44 1.56-4 3-3.08 0.0655-6.02-0.235-9-1-0.66-0.66-1.32-1.32-2-2 6.91-4.07 13.8-8.05 20.9-11.8 2.01-0.998 2.01-0.998 3.08-2.16z" fill="#0093E0"/>
<path transform="translate(523,140)" d="m0 0c0.66 0.33 1.32 0.66 2 1v4c-0.763 0.248-1.53 0.495-2.31 0.75-2.99 1.39-3.89 2.55-5.69 5.25-0.557 0.536-1.11 1.07-1.69 1.62-1.54 1.3-1.54 1.3-1.31 3.38h-2v2c-2.48-0.99-2.48-0.99-5-2v2h-3c0.33 1.32 0.66 2.64 1 4-0.99 0.66-1.98 1.32-3 2-3.69-0.875-3.69-0.875-7-2 1.67-1.67 3.33-3.33 5-5 0.516-0.598 1.03-1.2 1.56-1.81 1.44-1.19 1.44-1.19 5.44-1.19 0.371-0.928 0.371-0.928 0.75-1.88 1.46-2.48 2.63-3.08 5.25-4.12v-2c1.65-0.33 3.3-0.66 5-1 0.33-0.99 0.66-1.98 1-3 1.94-1.25 1.94-1.25 4-2zm-30 22c0.66 0.33 1.32 0.66 2 1h-3c0.33-0.33 0.66-0.66 1-1z" fill="#008CD5"/>
<path transform="translate(384,346)" d="m0 0c0.33 0.66 0.66 1.32 1 2h4c0.33-0.66 0.66-1.32 1-2v3h5v1h-5v4h5v1h-5v3h-16v-9c3.3-0.33 6.6-0.66 10-1v-2z" fill="#009BEC"/>
<path transform="translate(835,198)" d="m0 0h17v12h-9v-3h-8v-9z" fill="#009BEC"/>
<path transform="translate(429,859)" d="m0 0c1.65 0.99 3.3 1.98 5 3v-2h2v2h3v-2h2c0.268 0.804 0.536 1.61 0.812 2.44 0.392 0.846 0.784 1.69 1.19 2.56 0.99 0.33 1.98 0.66 3 1 0.33 2.64 0.66 5.28 1 8-1.32-0.33-2.64-0.66-4-1-1 2-1.49 3.83-2 6-0.351-0.928-0.701-1.86-1.06-2.81-2.54-4.17-4.41-4.65-8.94-6.19 0.227-0.577 0.454-1.15 0.688-1.75 0.587-2.35 0.587-2.35-1.12-4.31-0.773-0.959-0.773-0.959-1.56-1.94v-3z" fill="#009BEC"/>
<path transform="translate(366,578)" d="m0 0c1.42-0.0272 2.83-0.0465 4.25-0.0625 1.18-0.0174 1.18-0.0174 2.39-0.0352 2.27 0.0938 4.19 0.465 6.36 1.1v3h-4v2h4v3c-1.32 0.33-2.64 0.66-4 1v5h-9v-6c-0.99-0.33-1.98-0.66-3-1h3v-4c-0.99-0.33-1.98-0.66-3-1h3v-3z" fill="#009BEC"/>
<path transform="translate(366,411)" d="m0 0h38v3c-5.37 0.757-10.6 1.14-16 1.1-0.721-0.00141-1.44-0.00283-2.19-0.00429-2.27-0.00553-4.54-0.0181-6.81-0.0309-1.55-0.00502-3.11-0.00958-4.66-0.0137-3.78-0.0109-7.56-0.0282-11.3-0.0488 0.99-0.33 1.98-0.66 3-1v-3z" fill="#009BEC"/>
<path transform="translate(412,327)" d="m0 0c0.125 7.62 0.125 7.62-1 11-1.42 0.0545-2.83 0.093-4.25 0.125-0.789 0.0232-1.58 0.0464-2.39 0.0703-2.36-0.195-2.36-0.195-6.36-2.2v-9c4.49-1.12 9.69-2.16 14 0z" fill="#009BEC"/>
<path transform="translate(366,406)" d="m0 0h38v3c-9.29 0.866-18.5 1.13-27.8 1.06-1.28-0.00451-2.55-0.00902-3.87-0.0137-3.11-0.0116-6.21-0.028-9.32-0.0488 0.99-0.33 1.98-0.66 3-1v-3z" fill="#009BEC"/>
<path transform="translate(868,198)" d="m0 0h11v6c1.65-0.33 3.3-0.66 5-1-0.25 1.88-0.25 1.88-1 4-2.06 1.25-2.06 1.25-4 2 1.32 0.33 2.64 0.66 4 1-0.33 0.99-0.66 1.98-1 3h-2v-3h-3v3h-2v-3h-3v-3h-4v-9z" fill="#009BEC"/>
<path transform="translate(838,1190)" d="m0 0h2c2.84 4.89 5.45 9.52 7 15h2v2c4.77 1.23 9.42 1.11 14.3 1.06 0.836-0.00451 1.67-0.00902 2.53-0.0137 2.05-0.0117 4.1-0.0297 6.15-0.0488 0.383-1.06 0.383-1.06 0.773-2.14 1.34-3.13 2.99-5.82 4.85-8.68 0.632-0.976 1.26-1.95 1.91-2.96 0.723-1.1 0.723-1.1 1.46-2.23 1 2 1 2 0.405 3.88-6.81 14.7-6.81 14.7-12.7 17-6.02 1.07-13.2 1.16-18.6-2.04-2.6-2.06-4-3.5-5-6.7-0.0412-0.722-0.0825-1.44-0.125-2.19h-2c-0.838-1.62-1.67-3.25-2.5-4.88-0.464-0.905-0.928-1.81-1.41-2.74-1.09-2.38-1.09-2.38-1.09-4.38z" fill="#000002"/>
<path transform="translate(428,293)" d="m0 0c2.42-0.0271 4.83-0.0469 7.25-0.0625 0.682-0.00838 1.36-0.0168 2.07-0.0254 3.49-0.0169 6.27 0.235 9.68 1.09v9c-1.58 0.0272-3.17 0.0465-4.75 0.0625-1.32 0.0174-1.32 0.0174-2.67 0.0352-2.36-0.0894-4.32-0.429-6.58-1.1v-3h-5v-1c1.65-0.33 3.3-0.66 5-1v-3h-5v-1z" fill="#009BEC"/>
<path transform="translate(358,451)" d="m0 0h33c-0.33 1.32-0.66 2.64-1 4-4.52 0.0494-9.04 0.0857-13.6 0.11-1.54 0.0101-3.08 0.0237-4.62 0.041-2.21 0.0242-4.42 0.0356-6.63 0.0444-0.69 0.0103-1.38 0.0206-2.09 0.0313-1.7 4.02e-4 -3.41-0.105-5.11-0.227-0.66-0.66-1.32-1.32-2-2h2v-2z" fill="#009BEC"/>
<path transform="translate(358,446)" d="m0 0h33c-0.33 1.32-0.66 2.64-1 4-4.52 0.0494-9.04 0.0857-13.6 0.11-1.54 0.0101-3.08 0.0237-4.62 0.041-2.21 0.0242-4.42 0.0356-6.63 0.0444-0.69 0.0103-1.38 0.0206-2.09 0.0313-1.7 4.02e-4 -3.41-0.105-5.11-0.227-0.66-0.66-1.32-1.32-2-2h2v-2z" fill="#009BEC"/>
<path transform="translate(853,198)" d="m0 0h12v9h-2v6c-0.33-1.32-0.66-2.64-1-4h-4c-0.33 1.32-0.66 2.64-1 4v-4h-4v-11z" fill="#009BEC"/>
<path transform="translate(350,727)" d="m0 0c1.21 0.495 1.21 0.495 2.44 1 2.26 1.06 2.26 1.06 3.56 1-0.33-0.66-0.66-1.32-1-2 2.97 0.495 2.97 0.495 6 1v2h2v10c-6.62 1-6.62 1-10 1-0.309-1.11-0.619-2.23-0.938-3.38-0.886-3.42-0.886-3.42-2.06-5.62h2c-0.66-1.65-1.32-3.3-2-5z" fill="#009BEC"/>
<path transform="translate(1058,191)" d="m0 0h11v2c2.97 0.33 5.94 0.66 9 1 0.33 2.64 0.66 5.28 1 8h-5v-3h-9v-3c-2.31-0.33-4.62-0.66-7-1v-4z" fill="#019EEC"/>
<path transform="translate(454 237)" d="m0 0c1.48 0.191 1.48 0.191 2.99 0.387 1.49 0.18 1.49 0.18 3.01 0.363 0.759 0.107 1.52 0.214 2.3 0.324 0.33 0.99 0.66 1.98 1 3 0.99 0.33 1.98 0.66 3 1-1.32 0.33-2.64 0.66-4 1 0.33 0.99 0.66 1.98 1 3 0.99 0.33 1.98 0.66 3 1-2.44 0.054-4.87 0.0937-7.31 0.125-1.04 0.0251-1.04 0.0251-2.09 0.0508-3.77 0.0364-5.38-0.032-8.6-2.18 0.99-1.32 1.98-2.64 3-4-0.99-0.33-1.98-0.66-3-1 1.85-2.45 2.56-2.99 5.7-3.07z" fill="#009BEC"/>
<path transform="translate(1128,922)" d="m0 0c0.33 0.66 0.66 1.32 1 2 0.99 0.33 1.98 0.66 3 1-2.67 2.98-4.4 4.8-8.25 6.06-0.908 0.309-1.82 0.619-2.75 0.938-0.591 1.95-0.591 1.95-1 4-4.18 3-4.18 3-7 3-0.33 0.99-0.66 1.98-1 3h-2v2c-1.98 0.66-3.96 1.32-6 2v2c-0.66-0.33-1.32-0.66-2-1 2.1-5.15 6.36-9.06 11-12h3c0.392-0.949 0.784-1.9 1.19-2.88 2.04-3.51 3.01-4.05 6.81-5.12 2.51-1.26 2.87-2.5 4-5z" fill="#009DEC"/>
<path transform="translate(803,1163)" d="m0 0c3.27-0.0871 6.54-0.14 9.81-0.188 0.929-0.0251 1.86-0.0503 2.81-0.0762 1.34-0.0145 1.34-0.0145 2.71-0.0293 1.23-0.0236 1.23-0.0236 2.49-0.0476 2.69 0.421 3.5 1.25 5.18 3.34 0.797 1.28 1.54 2.6 2.25 3.94 2.64 4.94 5.55 9.7 8.49 14.5 1.26 2.6 1.26 2.6 0.258 5.6-1.63-2.54-3.26-5.08-4.88-7.62-0.46-0.713-0.92-1.43-1.39-2.16-2.05-3.23-3.67-6.02-4.86-9.68-0.286-0.838-0.572-1.68-0.867-2.54-2.82-0.941-4.53-1.12-7.45-1.1-0.848 0.00322-1.7 0.00645-2.57 0.00977-1.32 0.0126-1.32 0.0126-2.67 0.0254-1.34 0.00677-1.34 0.00677-2.71 0.0137-2.2 0.0118-4.4 0.0282-6.61 0.0488v-4z" fill="#000002"/>
<path transform="translate(631,88)" d="m0 0c-0.33 0.99-0.66 1.98-1 3 0.99 1.48 0.99 1.48 2 3-1.01 0.0619-2.02 0.124-3.06 0.188-4.61 0.621-7.35 2.96-10.9 5.81-1.65-1.65-3.3-3.3-5-5 5.17-4.92 5.17-4.92 9.38-5.31 0.866 0.103 1.73 0.206 2.62 0.312v-2c3.75-1.12 3.75-1.12 6 0z" fill="#0093E1"/>
<path transform="translate(810,198)" d="m0 0h11v9h-3v2h-3v-2h-2v2h-3v-11z" fill="#009BEC"/>
<path transform="translate(346,643)" d="m0 0h2v3c0.681-0.742 0.681-0.742 1.38-1.5 1.62-1.5 1.62-1.5 3.62-1.5v3h2c-0.186 0.639-0.371 1.28-0.562 1.94-0.144 0.681-0.289 1.36-0.438 2.06 0.33 0.33 0.66 0.66 1 1-0.33 1.32-0.66 2.64-1 4-3.3-0.33-6.6-0.66-10-1 0.33-1.32 0.66-2.64 1-4-0.186-0.681-0.371-1.36-0.562-2.06-0.144-0.639-0.289-1.28-0.438-1.94 0.66-0.99 1.32-1.98 2-3z" fill="#009BEC"/>
<path transform="translate(368,431)" d="m0 0h23c0.33 1.32 0.66 2.64 1 4h-27c0.99-0.33 1.98-0.66 3-1v-3z" fill="#009BEC"/>
<path transform="translate(368,426)" d="m0 0h23c0.33 1.32 0.66 2.64 1 4h-27c0.99-0.33 1.98-0.66 3-1v-3z" fill="#009BEC"/>
<path transform="translate(398,723)" d="m0 0c7.26 0.33 14.5 0.66 22 1v3h-32v-1c3.3-0.33 6.6-0.66 10-1v-2z" fill="#009BEC"/>
<path transform="translate(398,718)" d="m0 0c7.26 0.33 14.5 0.66 22 1v3h-32v-1c3.3-0.33 6.6-0.66 10-1v-2z" fill="#009BEC"/>
<path transform="translate(451,803)" d="m0 0c7.74-0.109 15.3 0.0284 23 1v3h-23v-4z" fill="#009BEC"/>
<path transform="translate(451,798)" d="m0 0c7.74-0.109 15.3 0.0284 23 1v3h-23v-4z" fill="#009BEC"/>
<path transform="translate(903 1163)" d="m0 0c0.851 0.00322 1.7 0.00645 2.58 0.00977 0.889 0.00838 1.78 0.0168 2.7 0.0254 0.897 0.00451 1.79 0.00902 2.72 0.0137 2.22 0.0118 4.44 0.0283 6.66 0.0488v4c-1.77-0.0348-1.77-0.0348-3.58-0.0703-1.56-0.0188-3.11-0.037-4.67-0.0547-1.17-0.0251-1.17-0.0251-2.36-0.0508-5.08-0.0434-8.3 0.229-12.1 3.8-0.413 0.454-0.825 0.908-1.25 1.38 0.33-1.65 0.66-3.3 1-5h2v-3c2.35-1.17 3.74-1.12 6.35-1.1z" fill="#000002"/>
<path transform="translate(911,103)" d="m0 0c1.63 0.141 3.25 0.288 4.88 0.438 0.905 0.0812 1.81 0.162 2.74 0.246 2.38 0.316 2.38 0.316 4.38 1.32 0.727 1.98 1.4 3.98 2 6-0.804 0.124-1.61 0.248-2.44 0.375-0.846 0.206-1.69 0.412-2.56 0.625-0.33 0.66-0.66 1.32-1 2-0.247-0.619-0.495-1.24-0.75-1.88-1.06-2.27-1.06-2.27-3.25-3.06-2.75-1.46-3.09-3.18-4-6.06z" fill="#019EEC"/>
<path transform="translate(330,606)" d="m0 0c2.88 0.25 2.88 0.25 6 1 2.17 2.86 2 4.28 2 8-5.33 0.437-5.33 0.437-8 0-2.06-2.38-2.06-2.38-3-5l1-2h2v-2z" fill="#019EEC"/>
<path transform="translate(556,120)" d="m0 0c0.66 0.33 1.32 0.66 2 1 0.625 3.06 0.625 3.06 1 6-1.44 1.56-1.44 1.56-4 3-3.08 0.0655-6.02-0.235-9-1-0.66-0.66-1.32-1.32-2-2 1.95-1.2 3.91-2.38 5.88-3.56 1.09-0.661 2.18-1.32 3.3-2 0.931-0.473 1.86-0.946 2.82-1.43z" fill="#008AD2"/>
<path transform="translate(405,314)" d="m0 0h29c-0.33 0.66-0.66 1.32-1 2-2.06 0.562-2.06 0.562-5 1-1.28 0.206-2.56 0.413-3.88 0.625-3.85 0.475-7.3 0.0642-11.1-0.625h-2v-2h-6v-1z" fill="#019EEC"/>
<path transform="translate(590,145)" d="m0 0h15v4c-1.26 0.0735-1.26 0.0735-2.55 0.148-1.1 0.0748-2.19 0.15-3.32 0.227-1.64 0.104-1.64 0.104-3.3 0.211-2.95 0.147-2.95 0.147-4.82 2.41-0.33-2.31-0.66-4.62-1-7z" fill="#019EEC"/>
<path transform="translate(371,519)" d="m0 0c0.33 0.99 0.66 1.98 1 3h3v15h-4v-18z" fill="#009BEC"/>
<path transform="translate(366,519)" d="m0 0c0.33 0.99 0.66 1.98 1 3h3v15h-4v-18z" fill="#009BEC"/>
<path transform="translate(1251,349)" d="m0 0c4.04 3.62 6.83 7.33 7.19 12.9-0.0619 0.701-0.124 1.4-0.188 2.12-5.54-0.482-5.54-0.482-7.44-2.62-0.784-3.31-0.167-6.05 0.438-9.38v-3z" fill="#009DEC"/>
<path transform="translate(779,670)" d="m0 0h20c-0.99 0.495-0.99 0.495-2 1v3h-14v-3c-1.32-0.33-2.64-0.66-4-1z" fill="#019EEC"/>
<path transform="translate(574,960)" d="m0 0c2.64 0.33 5.28 0.66 8 1 0.213 5.34 0.346 10.1-2 15-0.99 0.33-1.98 0.66-3 1v-4h2c-0.165-1.07-0.33-2.14-0.5-3.25-0.5-3.75-0.5-3.75-0.5-7.75h-4v-2z" fill="#019EEC"/>
<path transform="translate(1229,801)" d="m0 0c1.32 0.99 2.64 1.98 4 3-1.98 3.63-3.96 7.26-6 11-0.99-0.33-1.98-0.66-3-1-0.366-6.35-0.366-6.35 1.38-9.44 1.62-1.56 1.62-1.56 3.62-1.56v-2z" fill="#009DEC"/>
<path transform="translate(484,1143)" d="m0 0h19c-0.33 1.32-0.66 2.64-1 4h-18v-4z" fill="#000002"/>
<path transform="translate(547,950)" d="m0 0c9.4 1.49 9.4 1.49 19 3v2c-4.95 0.33-9.9 0.66-15 1v-2h-2v-2h-2v-2z" fill="#019EEC"/>
<path transform="translate(786,203)" d="m0 0h14v4c-1.96 0.195-3.92 0.38-5.88 0.562-1.09 0.104-2.18 0.209-3.3 0.316-2.82 0.121-2.82 0.121-4.82-0.879v-4z" fill="#009BEC"/>
<path transform="translate(786,198)" d="m0 0h14v4h-14v-4z" fill="#009BEC"/>
<path transform="translate(902,164)" d="m0 0h20v3c-13.6 0.185-13.6 0.185-20-1v-2z" fill="#009BEC"/>
<path transform="translate(1043,985)" d="m0 0c0.66-0.33 1.32-0.66 2-1-1 3-1 3-3.31 4.69-2.69 1.31-2.69 1.31-6.69 1.31v2c-1.65 0.33-3.3 0.66-5 1v-3c4.43-4.13 7.03-6.54 13-5z" fill="#009DEC"/>
<path transform="translate(902,159)" d="m0 0h20v3c-13.6 0.185-13.6 0.185-20-1v-2z" fill="#009BEC"/>
<path transform="translate(1094,954)" d="m0 0v2c-4.38 3-4.38 3-7 3v2c-2.31 0.66-4.62 1.32-7 2-0.33-0.66-0.66-1.32-1-2h3v-3h2c0.33-0.99 0.66-1.98 1-3 2.96-1.48 5.74-1.06 9-1z" fill="#009DEC"/>
<path transform="translate(385 687)" d="m0 0c1.19 0.102 2.38 0.204 3.6 0.309 0.915 0.0838 1.83 0.168 2.77 0.254v3h-16c0.33-0.99 0.66-1.98 1-3 2.94-1.47 5.37-0.849 8.62-0.562z" fill="#009BEC"/>
<path transform="translate(385 682)" d="m0 0c1.19 0.102 2.38 0.204 3.6 0.309 0.915 0.0838 1.83 0.168 2.77 0.254v3h-16c0.33-0.99 0.66-1.98 1-3 2.94-1.47 5.37-0.849 8.62-0.562z" fill="#009BEC"/>
<path transform="translate(349,380)" d="m0 0c1.32 0.33 2.64 0.66 4 1-0.66 2.64-1.32 5.28-2 8-0.784-0.0206-1.57-0.0412-2.38-0.0625-2.61-0.124-2.61-0.124-4.62 1.06v-3h2c-0.33-1.32-0.66-2.64-1-4 1.75-1.56 1.75-1.56 4-3z" fill="#009BEC"/>
<path transform="translate(526,695)" d="m0 0h4v3c0.66 0.33 1.32 0.66 2 1h-2v3h-21v-1h17v-6z" fill="#019EEC"/>
<path transform="translate(386 371)" d="m0 0c1.21 0.0135 1.21 0.0135 2.45 0.0273 0.922 0.0174 0.922 0.0174 1.86 0.0352v3c1.32 0.33 2.64 0.66 4 1h-15c-0.33-0.99-0.66-1.98-1-3 2.88-0.961 4.7-1.11 7.69-1.06z" fill="#009BEC"/>
<path transform="translate(1041,118)" d="m0 0c5.88 2.75 5.88 2.75 7 5 0.763 0.144 1.53 0.289 2.31 0.438 2.95 0.617 4.42 1.63 6.69 3.56-4.26 1.02-6.29 1.37-10.2-0.688-2.38-2.01-4.15-3.65-5.75-6.31v-2z" fill="#0089CE"/>
<path transform="translate(512,470)" d="m0 0h2c-0.549 4.57-1.42 8.67-3 13h-2c-0.33 0.66-0.66 1.32-1 2-0.0813-1.44-0.139-2.87-0.188-4.31-0.0348-0.801-0.0696-1.6-0.105-2.43 0.361-2.79 1.25-3.42 3.29-5.26 0.33-0.99 0.66-1.98 1-3z" fill="#009DEC"/>
<path transform="translate(386 366)" d="m0 0c1.21 0.0135 1.21 0.0135 2.45 0.0273 0.922 0.0174 0.922 0.0174 1.86 0.0352v3c1.32 0.33 2.64 0.66 4 1h-15c-0.33-0.99-0.66-1.98-1-3 2.88-0.961 4.7-1.11 7.69-1.06z" fill="#009BEC"/>
<path transform="translate(569,290)" d="m0 0 2 1c-0.308 2.13-0.622 4.25-0.938 6.38-0.174 1.18-0.348 2.37-0.527 3.59-0.535 3.04-0.535 3.04-1.54 5.04h-2v5h-2v-7h2c0.133-0.927 0.266-1.85 0.402-2.81 0.177-1.2 0.353-2.4 0.535-3.63 0.174-1.19 0.348-2.39 0.527-3.62 0.535-2.94 0.535-2.94 1.54-3.94z" fill="#009DEC"/>
<path transform="translate(592,763)" d="m0 0h1c0.407 5.42-0.96 9.07-3 14-1.32-0.33-2.64-0.66-4-1 2.96-9.82 2.96-9.82 6-13z" fill="#009DEC"/>
<path transform="translate(600,737)" d="m0 0c2 3 2 3 1.75 5.25-0.247 0.908-0.495 1.82-0.75 2.75-0.289 1.24-0.577 2.48-0.875 3.75-0.371 1.07-0.742 2.14-1.12 3.25-0.99 0.33-1.98 0.66-3 1 1.41-13.4 1.41-13.4 4-16z" fill="#009DEC"/>
<path transform="translate(671,126)" d="m0 0v4h-16c0.99-0.33 1.98-0.66 3-1v-2c4.39-0.702 8.56-1.11 13-1z" fill="#009BEC"/>
<path transform="translate(445,784)" d="m0 0h13c0.33 0.99 0.66 1.98 1 3h-14v-3z" fill="#009BEC"/>
<path transform="translate(582,923)" d="m0 0h10v4h-10v-4z" fill="#009BEC"/>
<path transform="translate(445,779)" d="m0 0h13c0.33 0.99 0.66 1.98 1 3h-14v-3z" fill="#009BEC"/>
<path transform="translate(721,203)" d="m0 0h10v4h-10v-4z" fill="#009BEC"/>
<path transform="translate(582,918)" d="m0 0h10v4h-10v-4z" fill="#009BEC"/>
<path transform="translate(506,933)" d="m0 0h11v2h-2v2h-9v-4z" fill="#009BEC"/>
<path transform="translate(525,432)" d="m0 0h2c0.75 2.75 0.75 2.75 1 6-1.81 2.38-1.81 2.38-4 4h-2c-0.37-5.55-0.37-5.55 1.5-7.81 0.495-0.392 0.99-0.784 1.5-1.19v-1z" fill="#009DEC"/>
<path transform="translate(721,198)" d="m0 0c0.722 0.186 1.44 0.371 2.19 0.562 2.94 0.457 4.95 0.173 7.81-0.562v4h-10v-4z" fill="#009BEC"/>
<path transform="translate(1277,700)" d="m0 0c1.18 3.55 0.695 4.7-0.438 8.19-0.287 0.901-0.575 1.8-0.871 2.73-0.228 0.687-0.456 1.37-0.691 2.08h-2c-0.33 0.99-0.66 1.98-1 3v-10h2l3-6z" fill="#019EEC"/>
<path transform="translate(370,523)" d="m0 0h1v14c0.99 0.33 1.98 0.66 3 1h-3v4c0.66 0.33 1.32 0.66 2 1h-2c-0.33 0.99-0.66 1.98-1 3-0.99-1.32-1.98-2.64-3-4h3c-0.776-3.07-0.776-3.07-3-5h3v-14z" fill="#019EEC"/>
<path transform="translate(365,533)" d="m0 0v4h-10v-3c3.21-1.61 6.44-1.06 10-1z" fill="#009BEC"/>
<path transform="translate(359 528)" d="m0 0c2.41 0.568 3.79 0.249 6.12-0.5v4h-10v-3c2-1 2-1 3.88-0.5z" fill="#009BEC"/>
<path transform="translate(343,524)" d="m0 0h11v3h-11v-3z" fill="#009BEC"/>
<path transform="translate(343,519)" d="m0 0h11v3h-11v-3z" fill="#009BEC"/>
<path transform="translate(989,438)" d="m0 0v3c-6.43 0.495-6.43 0.495-13 1 4.12-4.12 7.34-4.16 13-4z" fill="#019EEC"/>
<path transform="translate(861,106)" d="m0 0c1.86 0.0898 3.71 0.246 5.56 0.438 1.52 0.153 1.52 0.153 3.07 0.309 1.17 0.126 1.17 0.126 2.37 0.254-0.33 0.66-0.66 1.32-1 2-2.07 0.414-2.07 0.414-4.56 0.625-0.826 0.0748-1.65 0.15-2.5 0.227-0.957 0.0735-0.957 0.0735-1.93 0.148-0.33 1.32-0.66 2.64-1 4-0.381-2.33-0.713-4.66-1-7 0.33-0.33 0.66-0.66 1-1z" fill="#019EEC"/>
<path transform="translate(986,93)" d="m0 0c4.45-0.393 7.14 0.847 11 3v3c-1.67-0.324-3.33-0.659-5-1-1.08-0.155-1.08-0.155-2.19-0.312-1.81-0.688-1.81-0.688-3.06-2.75-0.247-0.639-0.495-1.28-0.75-1.94z" fill="#0084C7"/>
<path transform="translate(1295,500)" d="m0 0h1c0.745 6.37 1.1 12.6 1 19-2.65-2.64-3-3.85-3.07-7.67 0.112-1.36 0.242-2.72 0.387-4.08 0.0612-0.697 0.122-1.39 0.186-2.11 0.153-1.71 0.325-3.43 0.502-5.14z" fill="#009DEC"/>
<path transform="translate(553,349)" d="m0 0c0.66 0.66 1.32 1.32 2 2-0.242 2.38-0.242 2.38-0.875 5.12-0.204 0.91-0.407 1.82-0.617 2.76-0.168 0.699-0.335 1.4-0.508 2.12-0.99-0.33-1.98-0.66-3-1 0.114-1.46 0.242-2.92 0.375-4.38 0.0696-0.812 0.139-1.62 0.211-2.46 0.414-2.16 0.414-2.16 2.41-4.16z" fill="#009DEC"/>
<path transform="translate(562,324)" d="m0 0c-0.875 6.75-0.875 6.75-2 9-0.99-0.33-1.98-0.66-3-1 0.256-2.34 0.593-4.68 1-7 2-1 2-1 4-1z" fill="#009DEC"/>
<path transform="translate(1036,694)" d="m0 0c1.43 2.86 0.6 4.93 0 8h-2v2c-0.99-0.33-1.98-0.66-3-1 0.33-1.65 0.66-3.3 1-5h2v-3c0.66-0.33 1.32-0.66 2-1z" fill="#019EEC"/>
<path transform="translate(542,128)" d="m0 0c0.66 0.33 1.32 0.66 2 1h-3c0.33-0.33 0.66-0.66 1-1zm-3 2h2v5c-2.88 0.625-2.88 0.625-6 1-0.66-0.66-1.32-1.32-2-2 0.804-0.474 1.61-0.949 2.44-1.44 2.41-1.33 2.41-1.33 3.56-2.56z" fill="#0086CB"/>
<path transform="translate(398,391)" d="m0 0h3v3h2v-3h3v4h-10c0.66-0.33 1.32-0.66 2-1v-3z" fill="#009BEC"/>
<path transform="translate(398,386)" d="m0 0h3v3h2v-3h3v4h-10c0.66-0.33 1.32-0.66 2-1v-3z" fill="#009BEC"/>
<path transform="translate(513,460)" d="m0 0h6c-0.66 2.31-1.32 4.62-2 7-1.32-0.66-2.64-1.32-4-2 0.66-0.33 1.32-0.66 2-1-0.66-0.33-1.32-0.66-2-1v-3z" fill="#009DEC"/>
<path transform="translate(1127,233)" d="m0 0c0.33 1.65 0.66 3.3 1 5h-4v-3h-10v-1c1.42-0.169 2.83-0.335 4.25-0.5 1.18-0.139 1.18-0.139 2.39-0.281 2.36-0.219 2.36-0.219 6.36-0.219z" fill="#019EEC"/>
<path transform="translate(709,1184)" d="m0 0c0.99 0.495 0.99 0.495 2 1v5c-2-3.75-2-3.75-2-6z" fill="#000002"/>
<path transform="translate(388,1184)" d="m0 0c0.99 0.495 0.99 0.495 2 1v5c-2-3.75-2-3.75-2-6z" fill="#000002"/>
<path transform="translate(1169,220)" d="m0 0 2 1z" fill="#000002"/>
<path transform="translate(1079,140)" d="m0 0 2 1z" fill="#000002"/>
</svg>
